SplineFontDB: 3.0
FontName: Bodoni-06-Book-Italic
FullName: Bodoni* 06 Book Italic
FamilyName: Bodoni* 06
Weight: Book
Copyright: Copyright (c) 2020, indestructible type* (https://github.com/indestructible-type)
Version: 002.1
ItalicAngle: -13
UnderlinePosition: -200
UnderlineWidth: 0
Ascent: 1600
Descent: 400
InvalidEm: 0
LayerCount: 2
Layer: 0 0 "Back" 1
Layer: 1 0 "Fore" 0
PreferredKerning: 4
XUID: [1021 31 -699969567 16487490]
FSType: 0
OS2Version: 0
OS2_WeightWidthSlopeOnly: 0
OS2_UseTypoMetrics: 1
CreationTime: 1460762150
ModificationTime: 1580552637
PfmFamily: 17
TTFWeight: 400
TTFWidth: 5
LineGap: 0
VLineGap: 0
OS2TypoAscent: 2000
OS2TypoAOffset: 0
OS2TypoDescent: -800
OS2TypoDOffset: 0
OS2TypoLinegap: 0
OS2WinAscent: 2000
OS2WinAOffset: 0
OS2WinDescent: 800
OS2WinDOffset: 0
HheadAscent: 2000
HheadAOffset: 0
HheadDescent: -800
HheadDOffset: 0
OS2CapHeight: 1500
OS2XHeight: 920
OS2FamilyClass: 768
OS2Vendor: 'it* '
OS2UnicodeRanges: 00000001.00000000.00000000.00000000
Lookup: 1 0 0 "'ss02' Style Set 2 lookup 4" { "'ss02' Style Set 2 lookup 4-1"  } ['ss02' ('DFLT' <'dflt' > 'grek' <'dflt' > 'latn' <'dflt' > ) ]
Lookup: 1 0 0 "'ss03' Style Set 3 lookup 5" { "'ss03' Style Set 3 lookup 5-1"  } ['ss03' ('DFLT' <'dflt' > 'grek' <'dflt' > 'latn' <'dflt' > ) ]
Lookup: 1 0 0 "'ss04' Style Set 4 lookup 5" { "'ss04' Style Set 4 lookup 5-1"  } ['ss04' ('DFLT' <'dflt' > 'grek' <'dflt' > 'latn' <'dflt' > ) ]
Lookup: 1 0 0 "'ss01' Style Set 1 lookup 2" { "'ss01' Style Set 1 lookup 2-1"  } ['ss01' ('DFLT' <'dflt' > 'grek' <'dflt' > 'latn' <'dflt' > ) ]
Lookup: 5 0 0 "'calt' Contextual Alternates lookup 3" { "'calt' Contextual Alternates lookup 3-1"  } ['calt' ('DFLT' <'dflt' > 'grek' <'dflt' > 'latn' <'dflt' > ) ]
Lookup: 4 0 1 "'liga' Standard Ligatures lookup 0" { "'liga' Standard Ligatures lookup 0-1"  } ['liga' ('DFLT' <'dflt' > 'grek' <'dflt' > 'latn' <'dflt' > ) ]

StartChar: ampersand
Encoding: 38 38 0
GlifName: ampersand
Width: 1591
Flags: HMW
LayerCount: 2
Fore
SplineSet
783 884 m 17
 1010 975 1082 1092 1082 1256 c 0
 1082 1379 1003 1453 898 1453 c 0
 769 1453 686 1366 686 1240 c 0
 686 1170 709 1080 764 939 c 2
 1052 189 l 2
 1079 107 1104 65 1184 65 c 0
 1256 65 1304 115 1339 160 c 1
 1398 141 l 1
 1360 53 1258 -20 1100 -20 c 0
 954 -20 874 45 822 182 c 2
 527 939 l 2
 493 1023 477 1096 477 1166 c 0
 477 1366 667 1520 938 1520 c 0
 1112 1520 1289 1431 1289 1271 c 0
 1289 1069 1065 928 811 816 c 1
 783 884 l 17
578 815 m 9
 605 754 l 1
 410 671 260 548 260 339 c 0
 260 211 310 65 518 65 c 0
 1024 65 1490 530 1490 711 c 2
 1490 715 l 17
 1476 694 1441 670 1402 670 c 0
 1322 670 1296 734 1296 784 c 0
 1296 845 1346 898 1420 898 c 0
 1516 898 1572 834 1572 742 c 0
 1572 463 1029 -20 479 -20 c 0
 193 -20 40 114 40 320 c 0
 40 644 291 701 578 815 c 9
EndSplineSet
EndChar

StartChar: period
Encoding: 46 46 1
GlifName: period
Width: 399
Flags: HMW
LayerCount: 2
Fore
SplineSet
20 100 m 4
 20 166 75 221 141 221 c 4
 207 221 260 166 260 100 c 4
 260 34 207 -20 141 -20 c 4
 75 -20 20 34 20 100 c 4
EndSplineSet
EndChar

StartChar: zero
Encoding: 48 48 2
GlifName: zero
Width: 1239
Flags: HMW
LayerCount: 2
Fore
SplineSet
884 1520 m 0
 1140 1520 1286 1310 1286 1072 c 0
 1286 494 926 -20 544 -20 c 0
 288 -20 143 190 143 428 c 0
 143 1006 502 1520 884 1520 c 0
884 1453 m 0
 562 1453 338 750 338 368 c 0
 338 196 370 47 544 47 c 4
 866 47 1090 750 1090 1132 c 0
 1090 1304 1058 1453 884 1453 c 0
EndSplineSet
EndChar

StartChar: one
Encoding: 49 49 3
GlifName: one
Width: 869
VWidth: 2309
Flags: HMW
LayerCount: 2
Fore
SplineSet
-65 73 m 5
 564 73 l 5
 564 0 l 5
 -65 0 l 5
 -65 73 l 5
463 1427 m 1
 244 1427 l 1
 244 1500 l 1
 670 1500 l 1
 330 0 l 1
 141 0 l 1
 463 1427 l 1
EndSplineSet
EndChar

StartChar: two
Encoding: 50 50 4
GlifName: two
Width: 1099
VWidth: 2309
Flags: HMW
LayerCount: 2
Fore
SplineSet
275 1154 m 5
 287 1162 308 1164 318 1164 c 0
 377 1164 436 1122 436 1052 c 0
 436 972 381 924 311 924 c 0
 241 924 182 975 182 1059 c 0
 182 1293 397 1520 670 1520 c 0
 912 1520 1074 1400 1074 1200 c 0
 1074 1000 876 824 758 730 c 2
 107 180 l 1
 793 180 l 1
 824 330 l 1
 898 330 l 1
 828 0 l 1
 -82 0 l 1
 -55 130 l 1
 477 592 l 2
 647 740 874 972 874 1160 c 0
 874 1368 781 1425 605 1425 c 0
 457 1425 313 1308 275 1154 c 5
EndSplineSet
EndChar

StartChar: three
Encoding: 51 51 5
GlifName: three
Width: 1041
VWidth: 2309
Flags: HMW
LayerCount: 2
Fore
SplineSet
290 1221 m 0
 290 1366 458 1518 702 1518 c 0
 884 1518 1062 1463 1062 1242 c 0
 1062 1042 898 802 436 802 c 1
 436 847 l 1
 754 847 859 1100 859 1228 c 0
 859 1367 776 1433 632 1433 c 0
 524 1433 434 1383 395 1317 c 1
 399 1317 402 1318 404 1318 c 0
 463 1318 518 1278 518 1208 c 0
 518 1128 454 1096 404 1096 c 0
 343 1096 290 1139 290 1221 c 0
10 271 m 0
 10 353 60 402 130 402 c 0
 191 402 238 362 238 290 c 0
 238 226 183 180 124 180 c 0
 122 180 117 181 113 181 c 5
 142 144 216 67 382 67 c 4
 620 67 760 272 760 460 c 0
 760 608 713 775 436 775 c 1
 436 820 l 1
 858 820 962 681 962 460 c 0
 962 200 704 -20 422 -20 c 0
 138 -20 10 126 10 271 c 0
EndSplineSet
EndChar

StartChar: four
Encoding: 52 52 6
GlifName: four
Width: 1189
VWidth: 2309
Flags: HMW
LayerCount: 2
Fore
SplineSet
1020 73 m 1
 1020 0 l 1
 490 0 l 1
 490 73 l 1
 1020 73 l 1
1170 1500 m 1
 850 0 l 1
 660 0 l 1
 947 1358 l 5
 211 467 l 1
 1170 467 l 1
 1170 394 l 1
 57 394 l 1
 971 1500 l 1
 1170 1500 l 1
EndSplineSet
Substitution2: "'ss03' Style Set 3 lookup 5-1" four.alt
EndChar

StartChar: five
Encoding: 53 53 7
GlifName: five
Width: 1000
VWidth: 2309
Flags: HMW
LayerCount: 2
Fore
SplineSet
939 561 m 0
 939 261 654 -20 352 -20 c 0
 148 -20 0 113 0 258 c 0
 0 340 52 382 113 382 c 0
 163 382 229 350 229 270 c 0
 229 200 172 160 113 160 c 0
 111 160 107 160 104 160 c 5
 133 124 213 55 332 55 c 4
 590 55 730 332 730 561 c 0
 730 749 648 859 500 859 c 0
 400 859 302 825 238 754 c 1
 166 754 l 1
 238 867 352 939 534 939 c 0
 786 939 939 821 939 561 c 0
1050 1320 m 1
 391 1320 l 1
 190 754 l 1
 117 754 l 1
 377 1500 l 1
 1015 1500 l 1
 1037 1609 l 1
 1109 1609 l 1
 1050 1320 l 1
EndSplineSet
EndChar

StartChar: six
Encoding: 54 54 8
GlifName: six
Width: 1119
VWidth: 2309
Flags: HMW
LayerCount: 2
Fore
SplineSet
880 600 m 0
 880 808 822 889 718 889 c 4
 472 889 300 561 300 340 c 1
 238 340 l 1
 238 574 420 980 762 980 c 0
 924 980 1080 879 1080 600 c 0
 1080 300 790 -20 488 -20 c 0
 265 -20 100 119 100 439 c 0
 100 865 564 1520 1130 1520 c 1
 1130 1453 l 1
 662 1453 311 864 311 520 c 1
 300 340 l 1
 300 152 371 53 494 53 c 4
 712 53 880 352 880 600 c 0
EndSplineSet
EndChar

StartChar: seven
Encoding: 55 55 9
GlifName: seven
Width: 1009
VWidth: 2309
Flags: HMW
LayerCount: 2
Fore
SplineSet
296 132 m 0
 296 300 467 573 619 796 c 4
 709 930 876 1151 998 1311 c 5
 333 1311 l 1
 301 1160 l 1
 229 1160 l 1
 300 1500 l 1
 1227 1500 l 1
 1227 1500 895 1050 715 796 c 0
 581 608 449 414 449 324 c 0
 449 238 557 248 557 116 c 0
 557 42 516 -20 428 -20 c 0
 360 -20 296 34 296 132 c 0
EndSplineSet
EndChar

StartChar: eight
Encoding: 56 56 10
GlifName: eight
Width: 1099
VWidth: 2309
Flags: HMW
LayerCount: 2
Fore
SplineSet
439 1061 m 0
 439 954 470 823 609 823 c 0
 787 823 900 992 900 1180 c 0
 900 1287 869 1447 730 1447 c 0
 552 1447 439 1249 439 1061 c 0
240 1050 m 0
 240 1290 448 1520 730 1520 c 0
 972 1520 1100 1349 1100 1189 c 0
 1100 949 891 760 609 760 c 0
 367 760 240 890 240 1050 c 0
260 320 m 0
 260 172 332 53 490 53 c 0
 688 53 800 251 800 439 c 0
 800 587 728 717 570 717 c 0
 372 717 260 508 260 320 c 0
61 300 m 0
 61 540 228 779 570 779 c 0
 852 779 1000 660 1000 460 c 0
 1000 220 832 -20 490 -20 c 0
 208 -20 61 100 61 300 c 0
EndSplineSet
EndChar

StartChar: A
Encoding: 65 65 12
GlifName: A_
Width: 1449
Flags: HMW
LayerCount: 2
Fore
SplineSet
-90 73 m 1
 350 73 l 1
 350 0 l 1
 -90 0 l 1
 -90 73 l 1
730 73 m 1
 1311 73 l 1
 1311 0 l 1
 730 0 l 1
 730 73 l 1
351 526 m 1
 1029 526 l 1
 1029 453 l 1
 351 453 l 1
 351 526 l 1
832 1268 m 1
 107 0 l 1
 23 0 l 1
 906 1529 l 1
 980 1529 l 1
 1170 0 l 1
 960 0 l 1
 832 1268 l 1
EndSplineSet
EndChar

StartChar: B
Encoding: 66 66 13
GlifName: B_
Width: 1250
Flags: HMW
LayerCount: 2
Fore
SplineSet
529 0 m 2
 -90 0 l 1
 -90 73 l 1
 529 73 l 2
 771 73 930 262 930 520 c 0
 930 698 834 733 682 733 c 6
 430 733 l 5
 430 779 l 1
 702 779 l 2
 984 779 1150 680 1150 480 c 0
 1150 180 871 0 529 0 c 2
439 1500 m 1
 630 1500 l 1
 279 0 l 1
 90 0 l 1
 439 1500 l 1
670 760 m 2
 430 760 l 1
 430 807 l 1
 670 807 l 2
 822 807 1061 932 1061 1230 c 0
 1061 1369 992 1427 820 1427 c 2
 260 1427 l 1
 260 1500 l 1
 820 1500 l 2
 1142 1500 1260 1410 1260 1210 c 0
 1260 970 992 760 670 760 c 2
EndSplineSet
EndChar

StartChar: C
Encoding: 67 67 14
GlifName: C_
Width: 1358
Flags: HMW
LayerCount: 2
Fore
SplineSet
620 -20 m 0
 313 -20 109 184 109 510 c 0
 109 1056 514 1520 980 1520 c 0
 1216 1520 1395 1376 1359 1090 c 1
 1320 1090 l 1
 1356 1354 1168 1439 1000 1439 c 0
 572 1439 330 855 330 391 c 0
 330 187 433 61 641 61 c 0
 909 61 1080 206 1180 410 c 1
 1221 410 l 1
 1141 164 906 -20 620 -20 c 0
1320 1090 m 1
 1344 1214 l 1
 1331 1256 1324 1287 1300 1350 c 1
 1426 1500 l 1
 1489 1500 l 1
 1393 1090 l 1
 1320 1090 l 1
1180 410 m 1
 1254 410 l 1
 1143 0 l 1
 1080 0 l 1
 1040 141 l 5
 1077 190 1127 244 1150 286 c 5
 1180 410 l 1
EndSplineSet
EndChar

StartChar: D
Encoding: 68 68 15
GlifName: D_
Width: 1389
Flags: HMW
LayerCount: 2
Fore
SplineSet
450 1500 m 1
 641 1500 l 1
 300 0 l 1
 109 0 l 1
 450 1500 l 1
500 0 m 2
 -70 0 l 1
 -70 73 l 1
 500 73 l 2
 928 73 1170 646 1170 1070 c 0
 1170 1254 1088 1427 840 1427 c 2
 250 1427 l 1
 250 1500 l 1
 840 1500 l 2
 1166 1500 1391 1316 1391 990 c 0
 1391 444 986 0 500 0 c 2
EndSplineSet
EndChar

StartChar: E
Encoding: 69 69 16
GlifName: E_
Width: 1180
Flags: HMW
LayerCount: 2
Fore
SplineSet
248 1500 m 1
 1331 1500 l 1
 1235 1090 l 1
 1162 1090 l 1
 1212 1304 1182 1427 948 1427 c 2
 248 1427 l 1
 248 1500 l 1
428 1500 m 1
 618 1500 l 1
 270 0 l 1
 80 0 l 1
 428 1500 l 1
566 739 m 6
 424 739 l 5
 424 812 l 5
 566 812 l 6
 679 812 769 852 798 986 c 5
 871 986 l 5
 773 557 l 5
 700 557 l 5
 729 691 679 739 566 739 c 6
1004 0 m 1
 -90 0 l 1
 -90 73 l 1
 600 73 l 2
 873 73 975 196 1034 450 c 1
 1107 450 l 1
 1004 0 l 1
EndSplineSet
EndChar

StartChar: F
Encoding: 70 70 17
GlifName: F_
Width: 1140
Flags: HMW
LayerCount: 2
Fore
SplineSet
527 711 m 6
 418 711 l 5
 418 783 l 1
 527 783 l 2
 699 783 786 811 811 945 c 1
 883 945 l 1
 787 536 l 1
 714 536 l 1
 743 670 701 711 527 711 c 6
-90 73 m 1
 471 73 l 1
 471 0 l 1
 -90 0 l 1
 -90 73 l 1
428 1500 m 1
 618 1500 l 1
 270 0 l 1
 80 0 l 1
 428 1500 l 1
248 1500 m 1
 1311 1500 l 1
 1215 1090 l 1
 1143 1090 l 1
 1193 1304 1162 1427 928 1427 c 2
 248 1427 l 1
 248 1500 l 1
EndSplineSet
EndChar

StartChar: G
Encoding: 71 71 18
GlifName: G_
Width: 1488
Flags: HMW
LayerCount: 2
Fore
SplineSet
1086 561 m 1
 1294 561 l 1
 1234 330 l 1
 1144 204 946 -20 620 -20 c 0
 313 -20 109 184 109 510 c 0
 109 1056 514 1520 980 1520 c 0
 1216 1520 1395 1376 1359 1090 c 1
 1320 1090 l 1
 1356 1354 1168 1433 1000 1433 c 0
 572 1433 330 855 330 391 c 0
 330 187 392 53 600 53 c 0
 848 53 975 206 1004 250 c 1
 1086 561 l 1
910 606 m 1
 1450 606 l 1
 1450 533 l 1
 910 533 l 1
 910 606 l 1
1426 1500 m 1
 1489 1500 l 1
 1393 1090 l 1
 1320 1090 l 1
 1346 1191 l 5
 1340 1247 1333 1302 1300 1350 c 5
 1426 1500 l 1
EndSplineSet
EndChar

StartChar: H
Encoding: 72 72 19
GlifName: H_
Width: 1439
Flags: HMW
LayerCount: 2
Fore
SplineSet
760 73 m 1
 1300 73 l 1
 1300 0 l 1
 760 0 l 1
 760 73 l 1
1090 1500 m 1
 1630 1500 l 1
 1630 1427 l 1
 1090 1427 l 1
 1090 1500 l 1
1270 1500 m 1
 1460 1500 l 1
 1120 0 l 1
 930 0 l 1
 1270 1500 l 1
-80 73 m 1
 460 73 l 1
 460 0 l 1
 -80 0 l 1
 -80 73 l 1
250 1500 m 1
 790 1500 l 1
 790 1427 l 1
 250 1427 l 1
 250 1500 l 1
430 1500 m 1
 620 1500 l 1
 279 0 l 1
 90 0 l 1
 430 1500 l 1
414 776 m 1
 1134 776 l 1
 1134 703 l 1
 414 703 l 1
 414 776 l 1
EndSplineSet
EndChar

StartChar: I
Encoding: 73 73 20
GlifName: I_
Width: 699
Flags: HMW
LayerCount: 2
Fore
SplineSet
-80 73 m 5
 561 73 l 5
 561 0 l 1
 -80 0 l 1
 -80 73 l 5
250 1500 m 1
 891 1500 l 1
 891 1427 l 1
 250 1427 l 1
 250 1500 l 1
480 1500 m 1
 670 1500 l 1
 330 0 l 1
 141 0 l 1
 480 1500 l 1
EndSplineSet
EndChar

StartChar: J
Encoding: 74 74 21
GlifName: J_
Width: 856
Flags: HMW
LayerCount: 2
Fore
SplineSet
387 1500 m 1
 1047 1500 l 1
 1047 1427 l 1
 387 1427 l 1
 387 1500 l 1
53 66 m 1
 71 43 110 14 166 14 c 0
 288 14 338 101 402 380 c 2
 656 1500 l 1
 847 1500 l 1
 584 338 l 1
 504 197 378 -61 176 -61 c 0
 42 -61 -61 40 -61 155 c 0
 -61 254 7 300 68 300 c 0
 118 300 181 264 181 182 c 0
 181 102 124 66 56 66 c 0
 55 66 54 66 53 66 c 1
EndSplineSet
Substitution2: "'ss02' Style Set 2 lookup 4-1" J.alt
EndChar

StartChar: K
Encoding: 75 75 22
GlifName: K_
Width: 1343
Flags: HMW
LayerCount: 2
Fore
SplineSet
-80 73 m 1
 460 73 l 1
 460 0 l 1
 -80 0 l 1
 -80 73 l 1
250 1500 m 1
 790 1500 l 1
 790 1427 l 1
 250 1427 l 1
 250 1500 l 1
430 1500 m 1
 620 1500 l 1
 279 0 l 1
 90 0 l 1
 430 1500 l 1
322 434 m 5
 218 434 l 1
 1227 1496 l 1
 1330 1496 l 5
 322 434 l 5
594 73 m 1
 1214 73 l 1
 1214 0 l 1
 594 0 l 1
 594 73 l 1
1464 1427 m 1
 984 1427 l 1
 984 1500 l 1
 1464 1500 l 1
 1464 1427 l 1
1059 0 m 1
 832 0 l 1
 576 779 l 1
 721 926 l 1
 1059 0 l 1
EndSplineSet
EndChar

StartChar: L
Encoding: 76 76 23
GlifName: L_
Width: 1156
Flags: HMW
LayerCount: 2
Fore
SplineSet
428 1500 m 1
 618 1500 l 1
 270 0 l 1
 80 0 l 1
 428 1500 l 1
248 1500 m 1
 798 1500 l 1
 798 1427 l 1
 248 1427 l 1
 248 1500 l 1
993 0 m 5
 -90 0 l 1
 -90 73 l 1
 590 73 l 2
 904 73 964 196 1023 450 c 1
 1098 450 l 5
 993 0 l 5
EndSplineSet
EndChar

StartChar: M
Encoding: 77 77 24
GlifName: M_
Width: 1736
Flags: HMW
LayerCount: 2
Fore
SplineSet
1106 73 m 1
 1596 73 l 1
 1596 0 l 1
 1106 0 l 1
 1106 73 l 1
1748 1427 m 1
 1437 0 l 1
 1246 0 l 1
 1566 1500 l 1
 1877 1500 l 1
 1877 1427 l 1
 1748 1427 l 1
831 262 m 1
 1510 1500 l 1
 1592 1500 l 1
 758 -20 l 1
 676 -20 l 1
 439 1500 l 1
 631 1500 l 1
 831 262 l 1
388 1427 m 5
 250 1427 l 1
 250 1500 l 1
 477 1500 l 1
 157 0 l 1
 80 0 l 1
 388 1427 l 5
-50 73 m 1
 307 73 l 1
 307 0 l 1
 -50 0 l 1
 -50 73 l 1
EndSplineSet
EndChar

StartChar: N
Encoding: 78 78 25
GlifName: N_
Width: 1496
Flags: HMW
LayerCount: 2
Fore
SplineSet
1420 1500 m 1
 1496 1500 l 1
 1150 -20 l 1
 1047 -20 l 1
 483 1500 l 1
 713 1500 l 1
 1149 314 l 1
 1420 1500 l 1
1180 1500 m 1
 1687 1500 l 1
 1687 1427 l 1
 1180 1427 l 1
 1180 1500 l 1
-70 73 m 1
 414 73 l 1
 414 0 l 1
 -70 0 l 1
 -70 73 l 1
447 1427 m 5
 250 1427 l 1
 250 1500 l 1
 537 1500 l 1
 197 0 l 1
 120 0 l 1
 447 1427 l 5
EndSplineSet
EndChar

StartChar: O
Encoding: 79 79 26
GlifName: O_
Width: 1429
Flags: HMW
LayerCount: 2
Fore
SplineSet
600 -20 m 0
 293 -20 109 184 109 510 c 0
 109 1056 513 1520 939 1520 c 0
 1225 1520 1430 1316 1430 990 c 0
 1430 444 1045 -20 600 -20 c 0
939 1453 m 0
 571 1453 330 855 330 391 c 0
 330 187 392 47 600 47 c 4
 989 47 1210 645 1210 1109 c 0
 1210 1273 1147 1453 939 1453 c 0
EndSplineSet
EndChar

StartChar: P
Encoding: 80 80 27
GlifName: P_
Width: 1209
Flags: HMW
LayerCount: 2
Fore
SplineSet
430 1500 m 1
 620 1500 l 1
 270 0 l 1
 80 0 l 1
 430 1500 l 1
-80 73 m 5
 471 73 l 5
 471 0 l 1
 -80 0 l 1
 -80 73 l 5
620 627 m 2
 400 627 l 1
 400 700 l 1
 620 700 l 2
 891 700 1050 946 1050 1164 c 0
 1050 1282 1011 1427 820 1427 c 2
 250 1427 l 1
 250 1500 l 1
 820 1500 l 2
 1082 1500 1270 1384 1270 1144 c 0
 1270 844 1022 627 620 627 c 2
EndSplineSet
EndChar

StartChar: Q
Encoding: 81 81 28
GlifName: Q_
Width: 1429
Flags: HMW
LayerCount: 2
Fore
SplineSet
850 -427 m 5
 850 -500 l 1
 463 -500 390 -346 490 0 c 1
 566 0 645 0 721 0 c 1
 621 -363 702 -427 850 -427 c 5
939 1453 m 0
 571 1453 330 855 330 391 c 0
 330 187 392 47 600 47 c 0
 989 47 1210 645 1210 1109 c 0
 1210 1273 1147 1453 939 1453 c 0
600 -20 m 0
 293 -20 109 184 109 510 c 0
 109 1056 513 1520 939 1520 c 0
 1225 1520 1430 1316 1430 990 c 0
 1430 444 1045 -20 600 -20 c 0
EndSplineSet
EndChar

StartChar: R
Encoding: 82 82 29
GlifName: R_
Width: 1429
Flags: HMW
LayerCount: 2
Fore
SplineSet
1300 23 m 5
 1228 -4 1192 -10 1120 -10 c 4
 654 -10 1152 733 660 733 c 6
 430 733 l 5
 430 770 l 5
 700 770 l 6
 1386 770 934 71 1180 71 c 4
 1222 71 1251 84 1278 96 c 5
 1300 23 l 5
471 1500 m 5
 660 1500 l 5
 311 0 l 5
 120 0 l 5
 471 1500 l 5
-80 73 m 5
 529 73 l 5
 529 0 l 5
 -80 0 l 5
 -80 73 l 5
721 764 m 6
 430 764 l 5
 430 807 l 5
 721 807 l 6
 992 807 1130 1023 1130 1221 c 4
 1130 1319 1111 1427 920 1427 c 6
 250 1427 l 5
 250 1500 l 5
 920 1500 l 6
 1182 1500 1350 1421 1350 1200 c 4
 1350 921 1123 764 721 764 c 6
EndSplineSet
Substitution2: "'ss01' Style Set 1 lookup 2-1" R.alt
EndChar

StartChar: S
Encoding: 83 83 30
GlifName: S_
Width: 1111
Flags: HMW
LayerCount: 2
Fore
SplineSet
1074 1232 m 1
 1059 1288 1039 1325 1021 1370 c 1
 1152 1520 l 1
 1215 1520 l 1
 1125 1109 l 1
 1052 1109 l 1
 1074 1232 l 1
1125 1109 m 1
 1052 1109 l 1
 1052 1327 938 1441 730 1441 c 0
 578 1441 396 1348 396 1190 c 0
 396 820 1006 979 1006 439 c 0
 1006 160 763 -29 466 -29 c 0
 154 -29 31 151 23 391 c 1
 96 391 l 1
 96 193 187 47 445 47 c 0
 657 47 846 152 846 350 c 0
 846 760 236 631 236 1070 c 0
 236 1370 513 1520 710 1520 c 0
 966 1520 1125 1371 1125 1109 c 1
-10 -20 m 1
 -73 -20 l 1
 23 391 l 1
 96 391 l 1
 92 262 l 5
 105 224 117 189 130 148 c 5
 -10 -20 l 1
EndSplineSet
EndChar

StartChar: T
Encoding: 84 84 31
GlifName: T_
Width: 1309
Flags: HMW
LayerCount: 2
Fore
SplineSet
239 73 m 1
 869 73 l 1
 869 0 l 1
 239 0 l 1
 239 73 l 1
787 1500 m 1
 977 1500 l 1
 629 0 l 1
 439 0 l 1
 787 1500 l 1
1167 1427 m 2
 577 1427 l 2
 343 1427 282 1302 223 1050 c 1
 150 1050 l 1
 254 1500 l 1
 1510 1500 l 1
 1406 1050 l 1
 1333 1050 l 1
 1392 1304 1401 1427 1167 1427 c 2
EndSplineSet
EndChar

StartChar: U
Encoding: 85 85 32
GlifName: U_
Width: 1400
Flags: HMW
LayerCount: 2
Fore
SplineSet
1168 1500 m 1
 1592 1500 l 5
 1592 1427 l 5
 1168 1427 l 1
 1168 1500 l 1
248 1500 m 1
 818 1500 l 1
 818 1427 l 1
 248 1427 l 1
 248 1500 l 1
1357 1500 m 1
 1432 1500 l 1
 1191 460 l 2
 1119 146 934 -29 618 -29 c 0
 292 -29 122 132 198 460 c 2
 438 1500 l 1
 628 1500 l 1
 389 480 l 2
 330 230 390 53 658 53 c 0
 887 53 1052 172 1118 460 c 2
 1357 1500 l 1
EndSplineSet
EndChar

StartChar: V
Encoding: 86 86 33
GlifName: V_
Width: 1472
Flags: HMW
LayerCount: 2
Fore
SplineSet
1674 1427 m 1
 1200 1427 l 1
 1200 1500 l 1
 1674 1500 l 1
 1674 1427 l 1
820 1427 m 1
 240 1427 l 1
 240 1500 l 1
 820 1500 l 1
 820 1427 l 1
717 242 m 5
 1441 1500 l 1
 1525 1500 l 1
 646 -29 l 1
 570 -29 l 1
 380 1500 l 1
 590 1500 l 1
 717 242 l 5
EndSplineSet
EndChar

StartChar: W
Encoding: 87 87 34
GlifName: W_
Width: 1925
Flags: HMW
LayerCount: 2
Fore
SplineSet
704 273 m 1
 1023 834 l 1
 1105 834 l 1
 619 -20 l 1
 536 -20 l 1
 424 1500 l 1
 613 1500 l 1
 704 273 l 1
1186 834 m 1
 1104 834 l 1
 1484 1500 l 1
 1565 1500 l 1
 1186 834 l 1
2159 1427 m 1
 1779 1427 l 1
 1779 1500 l 1
 2159 1500 l 1
 2159 1427 l 1
1684 1427 m 1
 240 1427 l 1
 240 1500 l 1
 1684 1500 l 1
 1684 1427 l 1
1242 273 m 1
 1942 1500 l 1
 2023 1500 l 5
 1158 -20 l 5
 1074 -20 l 1
 963 1500 l 1
 1152 1500 l 1
 1242 273 l 1
EndSplineSet
EndChar

StartChar: X
Encoding: 88 88 35
GlifName: X_
Width: 1449
Flags: HMW
LayerCount: 2
Fore
SplineSet
831 754 m 1
 732 754 l 1
 1346 1496 l 1
 1436 1496 l 1
 831 754 l 1
161 0 m 1
 66 0 l 1
 760 834 l 1
 854 834 l 1
 161 0 l 1
793 73 m 5
 1354 73 l 5
 1354 0 l 5
 793 0 l 5
 793 73 l 5
-100 73 m 1
 380 73 l 1
 380 0 l 1
 -100 0 l 1
 -100 73 l 1
870 1427 m 1
 311 1427 l 1
 311 1500 l 1
 870 1500 l 1
 870 1427 l 1
1570 1427 m 1
 1130 1427 l 1
 1130 1500 l 1
 1570 1500 l 1
 1570 1427 l 1
1215 0 m 5
 985 0 l 5
 450 1500 l 1
 672 1500 l 1
 1215 0 l 5
EndSplineSet
EndChar

StartChar: Y
Encoding: 89 89 36
GlifName: Y_
Width: 1449
Flags: HMW
LayerCount: 2
Fore
SplineSet
1650 1427 m 1
 1230 1427 l 1
 1230 1500 l 1
 1650 1500 l 1
 1650 1427 l 1
820 1427 m 1
 240 1427 l 1
 240 1500 l 1
 820 1500 l 1
 820 1427 l 1
330 73 m 1
 900 73 l 1
 900 0 l 1
 330 0 l 1
 330 73 l 1
863 807 m 1
 1443 1496 l 1
 1535 1496 l 1
 855 688 l 1
 700 0 l 1
 510 0 l 1
 680 754 l 1
 380 1500 l 1
 600 1500 l 1
 863 807 l 1
EndSplineSet
EndChar

StartChar: Z
Encoding: 90 90 37
GlifName: Z_
Width: 1097
Flags: HMW
LayerCount: 2
Fore
SplineSet
988 1427 m 1
 628 1427 l 2
 355 1427 288 1374 238 1160 c 1
 165 1160 l 1
 244 1500 l 1
 1229 1500 l 1
 1229 1427 l 1
 141 73 l 1
 561 73 l 2
 834 73 899 128 958 380 c 1
 1031 380 l 5
 943 0 l 5
 -100 0 l 1
 -100 73 l 1
 988 1427 l 1
EndSplineSet
EndChar

StartChar: a
Encoding: 97 97 38
GlifName: a
Width: 1219
VWidth: 2309
Flags: HMW
LayerCount: 2
Fore
SplineSet
753 618 m 4
 753 764 674 838 592 838 c 4
 389 838 233 555 233 295 c 4
 233 162 291 81 398 81 c 4
 621 81 753 410 753 618 c 4
809 618 m 4
 809 402 656 -20 344 -20 c 4
 205 -20 40 70 40 305 c 4
 40 631 281 939 557 939 c 4
 729 939 809 802 809 618 c 4
1170 326 m 1
 1094 126 991 -20 824 -20 c 0
 720 -20 672 26 672 126 c 0
 672 136 674 158 676 170 c 2
 721 363 l 1
 770 525 l 1
 782 648 l 1
 846 920 l 1
 1025 920 l 1
 846 145 l 2
 843 133 842 119 842 109 c 0
 842 88 853 71 878 71 c 0
 956 71 1052 216 1098 348 c 1
 1170 326 l 1
EndSplineSet
EndChar

StartChar: b
Encoding: 98 98 39
GlifName: b
Width: 1135
VWidth: 2309
Flags: HMW
LayerCount: 2
Fore
SplineSet
410 1427 m 1
 271 1427 l 1
 271 1500 l 1
 607 1500 l 1
 328 279 l 1
 328 131 364 53 486 53 c 0
 694 53 873 356 873 624 c 4
 873 772 810 837 708 837 c 0
 556 837 423 689 368 460 c 1
 324 460 l 1
 398 804 590 938 752 938 c 0
 886 938 1066 871 1066 615 c 0
 1066 263 780 -20 482 -20 c 0
 280 -20 181 114 141 240 c 1
 410 1427 l 1
EndSplineSet
EndChar

StartChar: c
Encoding: 99 99 40
GlifName: c
Width: 947
VWidth: 2309
Flags: HMW
LayerCount: 2
Fore
SplineSet
809 775 m 1
 794 822 726 865 637 865 c 0
 379 865 233 528 233 314 c 4
 233 156 291 61 398 61 c 0
 518 61 652 135 742 286 c 1
 818 286 l 1
 726 93 539 -20 357 -20 c 0
 214 -20 40 60 40 320 c 0
 40 700 334 939 596 939 c 0
 780 939 898 847 898 702 c 0
 898 600 834 559 773 559 c 0
 723 559 660 590 660 670 c 0
 660 740 714 779 773 779 c 0
 786 779 801 777 809 775 c 1
EndSplineSet
EndChar

StartChar: d
Encoding: 100 100 41
GlifName: d
Width: 1219
VWidth: 2309
Flags: HMW
LayerCount: 2
Fore
SplineSet
1180 326 m 5
 1104 126 1001 -20 834 -20 c 4
 730 -20 682 26 682 126 c 4
 682 136 684 158 686 170 c 6
 721 363 l 5
 770 525 l 5
 782 648 l 5
 955 1427 l 5
 784 1427 l 5
 784 1500 l 5
 1150 1500 l 5
 855 145 l 6
 852 133 852 119 852 109 c 4
 852 88 863 71 888 71 c 4
 966 71 1062 216 1108 348 c 5
 1180 326 l 5
753 618 m 0
 753 764 674 838 592 838 c 0
 389 838 233 555 233 295 c 0
 233 162 291 81 398 81 c 0
 621 81 753 410 753 618 c 0
809 618 m 0
 809 402 656 -20 344 -20 c 0
 205 -20 40 70 40 305 c 0
 40 631 281 939 557 939 c 0
 729 939 809 802 809 618 c 0
EndSplineSet
EndChar

StartChar: e
Encoding: 101 101 42
GlifName: e
Width: 947
VWidth: 2309
Flags: HMW
LayerCount: 2
Fore
SplineSet
233 279 m 4
 233 131 280 62 398 62 c 4
 554 62 666 165 742 286 c 5
 818 286 l 5
 740 132 580 -20 357 -20 c 4
 195 -20 40 80 40 320 c 4
 40 707 350 939 631 939 c 4
 795 939 908 889 908 744 c 4
 908 424 433 407 210 407 c 5
 210 471 l 5
 428 471 730 506 730 744 c 4
 730 818 694 870 622 870 c 4
 444 870 233 607 233 279 c 4
EndSplineSet
EndChar

StartChar: f
Encoding: 102 102 43
GlifName: f
Width: 691
VWidth: 2309
Flags: HMW
LayerCount: 2
Fore
SplineSet
113 920 m 1
 754 920 l 1
 754 847 l 1
 113 847 l 1
 113 920 l 1
883 1418 m 1
 865 1432 830 1447 775 1447 c 0
 634 1447 538 1324 494 1080 c 2
 292 -23 l 2
 246 -273 86 -520 -174 -520 c 0
 -336 -520 -400 -406 -400 -322 c 0
 -400 -240 -347 -198 -286 -198 c 0
 -236 -198 -174 -227 -174 -307 c 0
 -174 -377 -223 -418 -272 -418 c 0
 -273 -418 -274 -418 -275 -418 c 1
 -257 -432 -229 -447 -174 -447 c 0
 -33 -447 65 -324 107 -80 c 2
 300 1023 l 2
 344 1275 515 1520 775 1520 c 0
 937 1520 1002 1406 1002 1322 c 0
 1002 1240 950 1198 889 1198 c 0
 839 1198 774 1227 774 1307 c 0
 774 1377 831 1418 880 1418 c 0
 881 1418 882 1418 883 1418 c 1
EndSplineSet
EndChar

StartChar: g
Encoding: 103 103 44
GlifName: g
Width: 1123
VWidth: 2309
Flags: HMW
LayerCount: 2
Fore
SplineSet
385 -4 m 5
 251 -39 109 -160 109 -284 c 0
 109 -400 195 -441 302 -441 c 0
 471 -441 684 -325 684 -145 c 0
 684 -57 634 -18 525 -18 c 0
 483 -18 437 -18 393 -18 c 0
 213 -18 76 -1 76 123 c 0
 76 271 284 387 494 387 c 1
 490 336 l 1
 424 336 244 279 244 191 c 0
 244 136 325 139 434 139 c 0
 504 139 519 141 576 141 c 0
 726 141 811 78 811 -94 c 0
 811 -336 569 -520 290 -520 c 0
 63 -520 -80 -461 -80 -311 c 0
 -80 -109 168 -4 258 -4 c 2
 385 -4 l 5
1154 788 m 0
 1154 698 1102 668 1052 668 c 0
 1002 668 952 702 952 768 c 0
 952 795 961 816 973 830 c 0
 985 844 1002 853 1010 855 c 1
 1006 857 991 857 986 857 c 0
 926 857 845 809 765 655 c 1
 706 693 l 1
 786 855 916 930 996 930 c 0
 1098 930 1154 864 1154 788 c 0
408 393 m 0
 586 393 666 569 666 717 c 0
 666 805 626 867 548 867 c 0
 370 867 290 691 290 543 c 0
 290 455 330 393 408 393 c 0
408 320 m 0
 246 320 111 390 111 570 c 0
 111 791 325 939 548 939 c 0
 710 939 844 869 844 689 c 0
 844 468 631 320 408 320 c 0
EndSplineSet
EndChar

StartChar: h
Encoding: 104 104 45
GlifName: h
Width: 1166
VWidth: 2309
Flags: HMW
LayerCount: 2
Fore
SplineSet
770 616 m 6
 822 770 806 847 714 847 c 4
 598 847 385 653 309 346 c 5
 255 346 l 5
 331 651 544 939 771 939 c 4
 964 939 1008 799 956 639 c 6
 794 146 l 6
 790 134 788 120 788 110 c 4
 788 89 801 72 826 72 c 4
 904 72 999 216 1045 348 c 5
 1116 326 l 5
 1040 126 938 -20 766 -20 c 4
 662 -20 612 30 612 116 c 4
 612 145 618 166 624 184 c 6
 770 616 l 6
372 1427 m 1
 250 1427 l 1
 250 1500 l 1
 570 1500 l 1
 230 0 l 1
 50 0 l 1
 372 1427 l 1
EndSplineSet
EndChar

StartChar: i
Encoding: 105 105 46
GlifName: i
Width: 717
VWidth: 2309
Flags: HMW
LayerCount: 2
Fore
SplineSet
324 1400 m 4
 324 1466 377 1520 443 1520 c 4
 509 1520 564 1466 564 1400 c 4
 564 1334 509 1279 443 1279 c 4
 377 1279 324 1334 324 1400 c 4
607 326 m 5
 531 126 429 -20 262 -20 c 4
 158 -20 109 26 109 126 c 4
 109 136 111 158 113 170 c 6
 267 847 l 5
 141 847 l 5
 141 920 l 5
 464 920 l 5
 283 145 l 6
 280 133 279 119 279 109 c 4
 279 88 291 71 316 71 c 4
 394 71 490 216 536 348 c 5
 607 326 l 5
EndSplineSet
EndChar

StartChar: j
Encoding: 106 106 47
GlifName: j
Width: 543
VWidth: 2309
Flags: HMW
LayerCount: 2
Fore
SplineSet
344 1400 m 4
 344 1466 398 1520 464 1520 c 4
 530 1520 584 1466 584 1400 c 4
 584 1334 530 1279 464 1279 c 4
 398 1279 344 1334 344 1400 c 4
-238 -398 m 5
 -218 -428 -180 -447 -145 -447 c 4
 35 -447 91 -202 137 40 c 6
 288 847 l 5
 116 847 l 5
 116 920 l 5
 477 920 l 5
 299 -23 l 6
 252 -274 126 -520 -134 -520 c 4
 -277 -520 -340 -396 -340 -322 c 4
 -340 -225 -277 -178 -216 -178 c 4
 -166 -178 -113 -212 -113 -286 c 4
 -113 -321 -128 -350 -149 -368 c 4
 -168 -385 -201 -398 -238 -398 c 5
EndSplineSet
EndChar

StartChar: k
Encoding: 107 107 48
GlifName: k
Width: 1123
VWidth: 2309
Flags: HMW
LayerCount: 2
Fore
SplineSet
1080 326 m 5
 994 106 895 -20 728 -20 c 4
 634 -20 582 26 582 126 c 4
 582 136 583 158 586 170 c 6
 609 279 l 6
 634 395 705 542 557 542 c 4
 414 542 386 448 368 380 c 5
 305 380 l 5
 349 564 470 611 572 611 c 4
 711 611 834 502 773 242 c 6
 746 121 l 6
 745 117 744 108 744 104 c 4
 744 83 759 71 784 71 c 4
 870 71 962 216 1008 348 c 5
 1080 326 l 5
376 451 m 5
 404 521 l 5
 420 496 449 482 484 482 c 4
 545 482 587 597 639 725 c 4
 696 862 765 939 880 939 c 4
 970 939 1044 881 1044 777 c 4
 1044 687 991 658 941 658 c 4
 891 658 842 692 842 758 c 4
 842 815 881 852 938 852 c 4
 942 852 947 852 949 852 c 5
 935 861 913 867 887 867 c 4
 825 867 767 842 715 712 c 4
 660 575 599 412 484 412 c 4
 446 412 400 430 376 451 c 5
430 1427 m 5
 268 1427 l 5
 268 1500 l 5
 628 1500 l 5
 279 0 l 5
 100 0 l 5
 430 1427 l 5
EndSplineSet
EndChar

StartChar: l
Encoding: 108 108 49
GlifName: l
Width: 637
VWidth: 2309
Flags: HMW
LayerCount: 2
Fore
SplineSet
588 326 m 1
 512 126 410 -20 242 -20 c 0
 138 -20 90 26 90 126 c 0
 90 136 91 158 94 170 c 2
 383 1427 l 1
 212 1427 l 1
 212 1500 l 1
 578 1500 l 1
 264 145 l 2
 261 133 260 119 260 109 c 0
 260 88 272 70 297 70 c 0
 375 70 471 216 517 348 c 1
 588 326 l 1
EndSplineSet
EndChar

StartChar: m
Encoding: 109 109 50
GlifName: m
Width: 1697
VWidth: 2309
Flags: HMW
LayerCount: 2
Fore
SplineSet
1302 616 m 2
 1354 770 1350 847 1258 847 c 0
 1142 847 939 653 863 346 c 1
 810 346 l 1
 886 651 1081 939 1311 939 c 0
 1510 939 1540 799 1488 639 c 2
 1326 146 l 2
 1322 134 1320 120 1320 110 c 0
 1320 89 1332 72 1357 72 c 0
 1435 72 1530 216 1576 348 c 1
 1648 326 l 1
 1572 126 1464 -20 1297 -20 c 0
 1193 -20 1146 30 1146 116 c 0
 1146 145 1152 170 1156 184 c 2
 1302 616 l 2
779 0 m 17
 600 0 l 1
 750 616 l 2
 788 774 798 847 706 847 c 0
 590 847 388 653 312 346 c 1
 258 346 l 1
 334 651 537 939 764 939 c 0
 957 939 976 801 936 639 c 2
 779 0 l 17
252 847 m 1
 130 847 l 1
 130 920 l 1
 450 920 l 1
 230 0 l 1
 50 0 l 1
 252 847 l 1
EndSplineSet
EndChar

StartChar: n
Encoding: 110 110 51
GlifName: n
Width: 1169
VWidth: 2309
Flags: HMW
LayerCount: 2
Fore
SplineSet
252 847 m 1
 130 847 l 1
 130 920 l 1
 450 920 l 1
 230 0 l 1
 50 0 l 1
 252 847 l 1
773 616 m 6
 825 770 810 847 718 847 c 4
 602 847 388 653 312 346 c 5
 259 346 l 5
 335 651 548 939 775 939 c 4
 968 939 1012 799 960 639 c 6
 798 146 l 6
 794 134 792 120 792 110 c 4
 792 89 805 72 830 72 c 4
 908 72 1003 216 1049 348 c 5
 1120 326 l 5
 1044 126 942 -20 770 -20 c 4
 666 -20 616 30 616 116 c 4
 616 145 622 166 628 184 c 6
 773 616 l 6
EndSplineSet
EndChar

StartChar: o
Encoding: 111 111 52
GlifName: o
Width: 1063
VWidth: 2309
Flags: HMW
LayerCount: 2
Fore
SplineSet
398 -20 m 0
 216 -20 40 60 40 320 c 0
 40 700 335 939 637 939 c 0
 819 939 994 860 994 600 c 0
 994 220 700 -20 398 -20 c 0
398 53 m 0
 656 53 786 359 786 607 c 4
 786 775 744 867 637 867 c 0
 379 867 248 560 248 312 c 0
 248 144 291 53 398 53 c 0
EndSplineSet
EndChar

StartChar: p
Encoding: 112 112 53
GlifName: p
Width: 1119
VWidth: 2309
Flags: HMW
LayerCount: 2
Fore
SplineSet
348 302 m 4
 348 156 427 82 509 82 c 4
 712 82 867 365 867 625 c 4
 867 758 809 839 702 839 c 4
 479 839 348 510 348 302 c 4
291 302 m 4
 291 518 445 939 757 939 c 4
 896 939 1061 850 1061 615 c 4
 1061 289 819 -20 543 -20 c 4
 371 -20 291 118 291 302 c 4
-170 -427 m 1
 279 -427 l 1
 279 -500 l 1
 -170 -500 l 1
 -170 -427 l 1
260 847 m 1
 134 847 l 1
 134 920 l 1
 458 920 l 1
 380 588 l 1
 330 426 l 1
 318 305 l 1
 130 -500 l 1
 -50 -500 l 1
 260 847 l 1
EndSplineSet
EndChar

StartChar: q
Encoding: 113 113 54
GlifName: q
Width: 1109
VWidth: 2309
Flags: HMW
LayerCount: 2
Fore
SplineSet
843 -427 m 1
 843 -500 l 1
 393 -500 l 1
 393 -427 l 1
 843 -427 l 1
698 -500 m 17
 518 -500 l 1
 721 363 l 1
 740 421 753 471 770 525 c 1
 782 648 l 1
 842 900 l 1
 1029 939 l 1
 698 -500 l 17
753 618 m 0
 753 764 674 838 592 838 c 0
 389 838 233 555 233 295 c 0
 233 162 291 81 398 81 c 0
 621 81 753 410 753 618 c 0
809 618 m 0
 809 402 656 -20 344 -20 c 0
 205 -20 40 70 40 305 c 0
 40 631 281 939 557 939 c 0
 729 939 809 802 809 618 c 0
EndSplineSet
EndChar

StartChar: r
Encoding: 114 114 55
GlifName: r
Width: 838
VWidth: 2309
Flags: HMW
LayerCount: 2
Fore
SplineSet
879 777 m 0
 879 709 840 656 764 656 c 0
 698 656 646 692 646 766 c 0
 646 799 657 822 668 836 c 0
 680 852 698 865 709 870 c 1
 705 870 701 871 695 871 c 0
 519 871 374 580 318 346 c 1
 272 346 l 5
 320 590 471 939 695 939 c 0
 787 939 879 875 879 777 c 0
262 847 m 1
 130 847 l 1
 130 920 l 1
 450 920 l 1
 240 0 l 1
 61 0 l 1
 262 847 l 1
EndSplineSet
EndChar

StartChar: s
Encoding: 115 115 56
GlifName: s
Width: 803
VWidth: 2309
Flags: HMW
LayerCount: 2
Fore
SplineSet
565 836 m 1
 544 847 506 875 438 875 c 0
 346 875 264 828 264 741 c 0
 264 541 674 550 674 284 c 0
 674 96 493 -23 300 -23 c 0
 102 -23 0 101 0 210 c 0
 0 292 63 334 124 334 c 0
 174 334 238 303 238 223 c 0
 238 182 219 155 197 137 c 0
 179 123 152 111 125 111 c 1
 150 89 199 39 300 39 c 4
 441 39 518 113 518 195 c 0
 518 388 111 362 111 654 c 0
 111 852 292 938 438 938 c 0
 594 938 704 844 704 750 c 0
 704 668 655 637 594 637 c 0
 544 637 490 668 490 738 c 0
 490 763 502 794 523 812 c 0
 541 827 556 834 565 836 c 1
EndSplineSet
EndChar

StartChar: t
Encoding: 116 116 57
GlifName: t
Width: 649
VWidth: 2309
Flags: HMW
LayerCount: 2
Fore
SplineSet
80 920 m 1
 620 920 l 1
 620 846 l 1
 80 846 l 1
 80 920 l 1
596 326 m 1
 520 126 417 -20 250 -20 c 0
 146 -20 98 26 98 126 c 0
 98 136 99 158 102 170 c 2
 298 1120 l 1
 477 1120 l 1
 272 145 l 2
 269 133 268 119 268 109 c 0
 268 88 280 71 305 71 c 0
 383 71 478 216 524 348 c 1
 596 326 l 1
EndSplineSet
EndChar

StartChar: u
Encoding: 117 117 58
GlifName: u
Width: 1233
VWidth: 2309
Flags: HMW
LayerCount: 2
Fore
SplineSet
460 920 m 1
 316 305 l 2
 280 147 284 73 376 73 c 0
 492 73 705 267 781 574 c 1
 834 574 l 1
 758 269 545 -20 318 -20 c 0
 125 -20 97 118 134 282 c 6
 261 847 l 1
 137 847 l 1
 137 920 l 1
 460 920 l 1
1184 326 m 1
 1108 126 1005 -20 838 -20 c 0
 734 -20 686 26 686 126 c 0
 686 136 687 158 689 170 c 2
 857 920 l 1
 1040 920 l 1
 859 145 l 2
 856 133 855 119 855 109 c 0
 855 88 867 71 892 71 c 0
 970 71 1066 216 1112 348 c 1
 1184 326 l 1
EndSplineSet
EndChar

StartChar: v
Encoding: 118 118 59
GlifName: v
Width: 1071
VWidth: 2309
Flags: HMW
LayerCount: 2
Fore
SplineSet
455 317 m 2
 430 159 407 65 518 65 c 4
 659 65 959 411 959 688 c 4
 959 717 957 740 955 754 c 1
 939 733 907 710 866 710 c 0
 786 710 754 774 754 824 c 0
 754 885 802 938 876 938 c 0
 1002 938 1032 810 1032 688 c 0
 1032 383 721 -20 475 -20 c 0
 282 -20 235 98 264 262 c 2
 357 775 l 2
 359 787 362 801 362 811 c 0
 362 832 349 849 324 849 c 0
 240 849 145 705 99 573 c 1
 29 594 l 1
 105 794 225 939 387 939 c 0
 481 939 532 891 532 805 c 0
 532 776 525 750 523 736 c 2
 455 317 l 2
EndSplineSet
Substitution2: "'ss04' Style Set 4 lookup 5-1" v.alt
EndChar

StartChar: w
Encoding: 119 119 60
GlifName: w
Width: 1617
VWidth: 2309
Flags: HMW
LayerCount: 2
Fore
SplineSet
376 305 m 2
 324 151 340 74 432 74 c 0
 548 74 762 267 838 574 c 1
 891 574 l 1
 815 269 601 -20 374 -20 c 0
 181 -20 137 122 189 282 c 2
 352 774 l 2
 356 786 357 801 357 811 c 0
 357 832 345 848 320 848 c 0
 242 848 148 704 102 572 c 1
 29 594 l 1
 105 794 209 940 381 940 c 0
 485 940 533 891 533 805 c 0
 533 776 527 754 521 736 c 2
 376 305 l 2
920 920 m 1
 1100 920 l 1
 980 411 l 2
 940 243 944 62 1107 62 c 0
 1355 62 1503 472 1503 688 c 4
 1503 715 1501 743 1499 754 c 1
 1483 733 1451 710 1410 710 c 0
 1330 710 1298 774 1298 824 c 0
 1298 885 1346 938 1420 938 c 0
 1546 938 1578 810 1578 688 c 0
 1578 467 1438 -20 1068 -20 c 0
 890 -20 786 76 786 355 c 1
 920 920 l 1
EndSplineSet
EndChar

StartChar: x
Encoding: 120 120 61
GlifName: x
Width: 1053
VWidth: 2309
Flags: HMW
LayerCount: 2
Fore
SplineSet
494 500 m 1
 614 695 744 939 902 939 c 0
 1024 939 1064 852 1064 788 c 0
 1064 716 1024 668 948 668 c 0
 868 668 838 732 838 782 c 0
 838 802 841 810 846 824 c 0
 850 836 859 851 869 861 c 1
 834 853 789 814 762 777 c 0
 711 710 668 656 557 467 c 1
 494 500 l 1
510 420 m 1
 390 225 260 -20 102 -20 c 0
 -20 -20 -61 68 -61 132 c 0
 -61 204 -20 252 56 252 c 0
 136 252 166 188 166 138 c 0
 166 118 163 110 158 96 c 0
 154 84 145 69 135 59 c 1
 170 67 215 106 242 143 c 0
 293 210 336 264 447 453 c 1
 510 420 l 1
962 218 m 1
 896 38 806 -20 702 -20 c 0
 589 -20 525 50 500 146 c 0
 454 318 380 653 328 798 c 4
 320 819 309 846 273 846 c 4
 226 846 171 771 133 660 c 5
 66 693 l 5
 132 873 208 939 332 939 c 4
 445 939 500 869 525 773 c 4
 573 593 629 317 699 124 c 0
 707 103 734 76 759 76 c 0
 805 76 857 139 895 250 c 1
 962 218 l 1
EndSplineSet
EndChar

StartChar: y
Encoding: 121 121 62
GlifName: y
Width: 1123
VWidth: 2309
Flags: HMW
LayerCount: 2
Fore
SplineSet
643 -113 m 5
 497 139 378 644 323 789 c 0
 315 810 306 838 270 838 c 0
 209 838 169 773 131 662 c 1
 59 693 l 1
 125 873 200 939 324 939 c 0
 437 939 493 867 520 771 c 0
 575 591 641 259 771 66 c 5
 731 7 691 -51 643 -113 c 5
111 -520 m 0
 -23 -520 -107 -432 -107 -302 c 0
 -107 -236 -60 -170 16 -170 c 0
 66 -170 128 -201 128 -277 c 0
 128 -343 77 -387 27 -387 c 0
 3 -387 -10 -383 -20 -377 c 1
 -5 -412 33 -447 109 -447 c 0
 429 -447 1017 524 1017 730 c 0
 1017 747 1017 758 1014 768 c 1
 998 735 955 712 918 712 c 0
 838 712 812 776 812 826 c 0
 812 887 862 939 936 939 c 0
 1058 939 1094 814 1094 732 c 0
 1094 472 481 -520 111 -520 c 0
EndSplineSet
EndChar

StartChar: z
Encoding: 122 122 63
GlifName: z
Width: 791
VWidth: 2309
Flags: HMW
LayerCount: 2
Fore
SplineSet
55 580 m 1
 139 939 l 1
 246 878 366 861 458 861 c 0
 554 861 709 875 773 939 c 1
 828 883 l 1
 620 763 498 695 357 695 c 0
 269 695 222 731 170 761 c 1
 127 580 l 1
 55 580 l 1
-6 40 m 1
 -111 36 l 1
 717 879 l 5
 828 883 l 1
 -6 40 l 1
664 236 m 1
 658 233 646 232 628 232 c 0
 582 232 534 271 534 332 c 0
 534 402 589 434 639 434 c 0
 700 434 748 402 748 320 c 0
 748 220 659 -20 475 -20 c 0
 353 -20 306 78 174 78 c 0
 78 78 2 44 -62 -20 c 1
 -111 36 l 1
 97 156 180 205 305 205 c 0
 412 205 462 104 542 104 c 0
 627 104 653 206 664 236 c 1
EndSplineSet
EndChar

StartChar: comma
Encoding: 44 44 65
GlifName: comma
Width: 429
Flags: HMW
LayerCount: 2
Fore
SplineSet
20 92 m 0
 20 158 78 216 154 216 c 0
 232 216 288 167 288 62 c 0
 288 -118 106 -312 -74 -312 c 1
 -74 -238 l 1
 38 -238 156 -135 197 -10 c 5
 185 -16 165 -20 145 -20 c 4
 59 -20 20 31 20 92 c 0
EndSplineSet
EndChar

StartChar: exclam
Encoding: 33 33 67
GlifName: exclam
Width: 637
Flags: HMW
LayerCount: 2
Fore
SplineSet
656 1378 m 0
 616 1166 455 716 375 416 c 1
 301 416 l 5
 362 716 420 1066 420 1318 c 0
 420 1429 450 1516 548 1516 c 0
 618 1516 672 1460 656 1378 c 0
141 98 m 0
 141 164 192 216 258 216 c 0
 324 216 376 164 376 98 c 0
 376 32 324 -20 258 -20 c 0
 192 -20 141 32 141 98 c 0
EndSplineSet
EndChar

StartChar: quotesingle
Encoding: 39 39 70
GlifName: quotesingle
Width: 399
Flags: HMW
LayerCount: 2
Fore
SplineSet
482 1378 m 0
 444 1228 385 1177 324 977 c 5
 252 977 l 1
 302 1157 303 1211 282 1361 c 24
 280 1375 279 1386 279 1398 c 0
 279 1476 332 1520 391 1520 c 0
 450 1520 488 1477 488 1418 c 0
 488 1406 486 1392 482 1378 c 0
EndSplineSet
EndChar

StartChar: question
Encoding: 63 63 75
GlifName: question
Width: 1099
Flags: HMW
LayerCount: 2
Fore
SplineSet
604 670 m 1
 551 418 l 1
 478 418 l 1
 545 731 l 1
 779 793 988 975 988 1221 c 0
 988 1369 925 1445 771 1445 c 4
 583 1445 480 1355 445 1279 c 5
 448 1279 452 1279 454 1279 c 0
 513 1279 568 1240 568 1170 c 0
 568 1090 504 1059 454 1059 c 0
 393 1059 340 1100 340 1182 c 0
 340 1346 528 1520 792 1520 c 0
 1015 1520 1189 1420 1189 1180 c 0
 1189 910 915 686 604 670 c 1
EndSplineSet
Refer: 1 46 N 1 0 0 1 298 0 2
EndChar

StartChar: parenleft
Encoding: 40 40 76
GlifName: parenleft
Width: 723
Flags: HMW
LayerCount: 2
Fore
SplineSet
582 -273 m 5
 546 -340 l 5
 319 -240 164 24 164 370 c 4
 164 956 579 1440 966 1600 c 5
 1000 1535 l 5
 691 1375 348 814 348 330 c 4
 348 -33 434 -132 582 -273 c 5
EndSplineSet
EndChar

StartChar: asterisk
Encoding: 42 42 78
GlifName: asterisk
Width: 1269
VWidth: 2309
Flags: HMW
LayerCount: 2
Fore
SplineSet
514 1334 m 24
 632 1240 584 1177 773 1068 c 1
 734 1010 l 1
 545 1119 553 1086 412 1143 c 24
 334 1177 288 1250 324 1314 c 0
 362 1384 446 1378 514 1334 c 24
311 914 m 24
 452 971 544 963 733 1072 c 1
 771 1010 l 5
 582 901 526 838 408 744 c 24
 344 700 263 678 223 750 c 0
 187 814 235 882 311 914 c 24
584 654 m 0
 626 804 688 860 717 1040 c 1
 791 1040 l 1
 751 819 779 804 779 654 c 0
 779 560 738 496 668 496 c 0
 598 496 559 564 584 654 c 0
998 752 m 24
 880 846 923 903 734 1012 c 1
 773 1070 l 1
 962 961 955 995 1096 938 c 24
 1174 904 1220 830 1184 766 c 0
 1146 698 1062 710 998 752 c 24
1198 1166 m 24
 1057 1109 964 1117 775 1008 c 5
 737 1070 l 1
 926 1179 982 1242 1100 1336 c 24
 1164 1380 1246 1402 1286 1330 c 0
 1322 1266 1274 1198 1198 1166 c 24
924 1426 m 0
 882 1276 820 1220 791 1040 c 1
 717 1040 l 1
 757 1261 729 1276 729 1426 c 0
 729 1520 770 1584 840 1584 c 0
 910 1584 949 1516 924 1426 c 0
EndSplineSet
EndChar

StartChar: at
Encoding: 64 64 79
GlifName: at
Width: 2019
VWidth: 2309
Flags: HMW
LayerCount: 2
Fore
SplineSet
1293 712 m 0
 1293 388 1083 141 868 141 c 4
 710 141 568 252 568 460 c 0
 568 760 798 1059 1036 1059 c 0
 1213 1059 1293 876 1293 712 c 0
1229 691 m 0
 1229 775 1200 973 1068 973 c 0
 920 973 770 728 770 480 c 0
 770 346 800 227 928 227 c 0
 1050 227 1229 435 1229 691 c 0
1180 420 m 2
 1324 1040 l 1
 1504 1040 l 1
 1359 420 l 2
 1353 395 1283 215 1437 215 c 0
 1664 215 1837 493 1837 802 c 0
 1837 1142 1637 1507 1168 1507 c 0
 629 1507 184 1006 184 422 c 0
 184 -152 510 -355 838 -355 c 0
 1156 -355 1343 -277 1523 -82 c 1
 1570 -128 l 1
 1402 -323 1164 -428 838 -428 c 0
 472 -428 109 -204 109 422 c 0
 109 1048 584 1580 1170 1580 c 0
 1676 1580 1910 1168 1910 802 c 0
 1910 482 1724 137 1382 137 c 0
 1204 137 1153 296 1180 420 c 2
EndSplineSet
EndChar

StartChar: dollar
Encoding: 36 36 80
GlifName: dollar
Width: 1109
Flags: HMW
LayerCount: 2
Fore
SplineSet
684 1660 m 1
 757 1660 l 1
 336 -160 l 1
 264 -160 l 1
 684 1660 l 1
854 1660 m 1
 927 1660 l 5
 507 -160 l 5
 434 -160 l 1
 854 1660 l 1
414 1200 m 0
 414 830 1029 960 1029 420 c 0
 1029 141 792 -29 510 -29 c 0
 239 -29 61 149 61 290 c 0
 61 382 112 454 200 454 c 0
 261 454 328 410 328 322 c 0
 328 242 261 191 193 191 c 0
 180 191 171 193 163 195 c 1
 225 133 331 45 510 45 c 0
 707 45 850 152 850 330 c 0
 850 760 240 590 240 1090 c 0
 240 1330 472 1520 714 1520 c 0
 930 1520 1130 1372 1130 1210 c 0
 1130 1118 1078 1046 990 1046 c 0
 929 1046 861 1090 861 1178 c 0
 861 1258 928 1309 996 1309 c 0
 1007 1309 1013 1307 1017 1305 c 1
 966 1372 869 1441 725 1441 c 0
 513 1441 414 1339 414 1200 c 0
EndSplineSet
EndChar

StartChar: numbersign
Encoding: 35 35 81
GlifName: numbersign
Width: 1259
Flags: HMW
LayerCount: 2
Fore
SplineSet
132 549 m 1
 1212 549 l 1
 1212 471 l 5
 132 471 l 5
 132 549 l 1
232 1059 m 1
 1312 1059 l 1
 1312 980 l 1
 232 980 l 1
 232 1059 l 1
1063 1508 m 1
 1139 1510 l 1
 789 -10 l 1
 713 -12 l 1
 1063 1508 l 1
666 1510 m 1
 740 1510 l 1
 391 -10 l 1
 315 -10 l 1
 666 1510 l 1
EndSplineSet
EndChar

StartChar: slash
Encoding: 47 47 82
GlifName: slash
Width: 1039
Flags: HMW
LayerCount: 2
Fore
SplineSet
1146 1561 m 1
 1240 1561 l 1
 34 -300 l 5
 -61 -300 l 1
 1146 1561 l 1
EndSplineSet
EndChar

StartChar: percent
Encoding: 37 37 83
GlifName: percent
Width: 2000
Flags: HMW
LayerCount: 2
Fore
SplineSet
1460 -20 m 4
 1274 -20 1160 73 1160 279 c 4
 1160 605 1375 859 1641 859 c 0
 1827 859 1939 767 1939 561 c 4
 1939 235 1726 -20 1460 -20 c 4
1641 787 m 0
 1493 787 1359 504 1359 240 c 4
 1359 116 1392 53 1460 53 c 4
 1608 53 1740 336 1740 600 c 4
 1740 724 1709 787 1641 787 c 0
1691 1500 m 5
 1790 1500 l 5
 484 0 l 5
 387 0 l 5
 1691 1500 l 5
550 641 m 4
 364 641 250 733 250 939 c 0
 250 1265 464 1520 730 1520 c 4
 916 1520 1029 1427 1029 1221 c 4
 1029 895 816 641 550 641 c 4
730 1447 m 4
 582 1447 450 1164 450 900 c 0
 450 776 482 713 550 713 c 4
 698 713 830 996 830 1260 c 4
 830 1384 798 1447 730 1447 c 4
EndSplineSet
EndChar

StartChar: hyphen
Encoding: 45 45 85
GlifName: hyphen
Width: 719
Flags: HMW
LayerCount: 2
Fore
SplineSet
166 586 m 5
 646 586 l 5
 646 514 l 1
 166 514 l 1
 166 586 l 5
EndSplineSet
EndChar

StartChar: plus
Encoding: 43 43 87
GlifName: plus
Width: 1059
Flags: HMW
LayerCount: 2
Fore
SplineSet
461 221 m 1
 651 1040 l 1
 729 1040 l 1
 539 221 l 1
 461 221 l 1
186 668 m 1
 1006 668 l 1
 1006 596 l 1
 186 596 l 1
 186 668 l 1
EndSplineSet
EndChar

StartChar: less
Encoding: 60 60 89
GlifName: less
Width: 1119
Flags: HMW
LayerCount: 2
Fore
SplineSet
221 742 m 5
 221 823 l 5
 1180 1233 l 1
 1180 1152 l 1
 221 742 l 5
221 727 m 1
 221 812 l 1
 1000 402 l 1
 1000 316 l 1
 221 727 l 1
EndSplineSet
EndChar

StartChar: backslash
Encoding: 92 92 91
GlifName: backslash
Width: 1039
Flags: HMW
LayerCount: 2
Fore
SplineSet
439 1561 m 1
 820 -300 l 1
 740 -300 l 5
 359 1561 l 1
 439 1561 l 1
EndSplineSet
EndChar

StartChar: bracketleft
Encoding: 91 91 92
GlifName: bracketleft
Width: 669
Flags: HMW
LayerCount: 2
Fore
SplineSet
400 1561 m 1
 880 1561 l 1
 880 1486 l 1
 562 1486 l 5
 178 -227 l 1
 460 -227 l 1
 460 -300 l 1
 -20 -300 l 1
 400 1561 l 1
EndSplineSet
EndChar

StartChar: braceleft
Encoding: 123 123 93
GlifName: braceleft
Width: 543
VWidth: 2309
Flags: HMW
LayerCount: 2
Fore
SplineSet
764 1561 m 1
 764 1486 l 1
 580 1486 490 1340 490 1214 c 0
 490 1103 508 1062 508 902 c 0
 508 736 318 630 170 610 c 1
 170 666 l 1
 231 686 340 728 340 830 c 0
 340 935 305 969 305 1143 c 0
 305 1381 434 1561 764 1561 c 1
344 -300 m 1
 94 -300 10 -238 10 -80 c 0
 10 154 270 348 270 474 c 0
 270 556 231 574 170 594 c 1
 170 650 l 5
 318 630 384 565 384 439 c 0
 384 239 195 60 195 -77 c 0
 195 -139 220 -227 344 -227 c 1
 344 -300 l 1
EndSplineSet
EndChar

StartChar: bar
Encoding: 124 124 96
GlifName: bar
Width: 459
VWidth: 2309
Flags: HMW
LayerCount: 2
Fore
SplineSet
476 1561 m 1
 547 1561 l 1
 66 -500 l 1
 -4 -500 l 1
 476 1561 l 1
EndSplineSet
EndChar

StartChar: cent
Encoding: 162 162 98
GlifName: cent
Width: 947
VWidth: 2309
Flags: HMW
LayerCount: 2
Fore
SplineSet
696 1109 m 5
 356 -170 l 5
 279 -170 l 5
 619 1109 l 5
 696 1109 l 5
EndSplineSet
Refer: 40 99 N 1 0 0 1 0 0 2
EndChar

StartChar: sterling
Encoding: 163 163 99
GlifName: sterling
Width: 1250
VWidth: 2309
Flags: HMW
LayerCount: 2
Fore
SplineSet
1184 314 m 1
 1144 24 962 -61 784 -61 c 0
 511 -61 420 61 294 61 c 0
 212 61 177 21 137 -40 c 1
 99 -40 l 1
 160 108 258 193 424 193 c 0
 624 193 644 126 796 126 c 0
 922 126 1071 150 1111 314 c 1
 1184 314 l 1
1029 811 m 1
 1029 736 l 1
 130 736 l 1
 130 811 l 1
 1029 811 l 1
396 1020 m 0
 396 1320 647 1520 1008 1520 c 0
 1272 1520 1404 1355 1404 1191 c 0
 1404 1109 1347 1068 1286 1068 c 0
 1236 1068 1172 1100 1172 1180 c 0
 1172 1250 1227 1290 1286 1290 c 4
 1292 1290 1300 1290 1307 1288 c 5
 1302 1343 1225 1447 1027 1447 c 4
 750 1447 618 1248 618 1100 c 0
 618 961 660 870 660 700 c 0
 660 320 112 271 137 -40 c 1
 64 -40 l 1
 26 237 458 393 458 622 c 0
 458 729 396 850 396 1020 c 0
EndSplineSet
EndChar

StartChar: section
Encoding: 167 167 101
GlifName: section
Width: 947
VWidth: 2309
Flags: HMW
LayerCount: 2
Fore
SplineSet
422 1264 m 4
 422 1052 916 1107 916 800 c 0
 916 636 759 580 652 508 c 1
 578 535 l 1
 626 579 744 636 744 716 c 0
 744 939 286 851 286 1195 c 0
 286 1403 482 1520 671 1520 c 0
 866 1520 984 1384 984 1252 c 0
 984 1130 933 1080 863 1080 c 0
 802 1080 756 1119 756 1191 c 0
 756 1255 811 1302 870 1302 c 0
 885 1302 896 1299 904 1296 c 1
 897 1362 830 1447 666 1447 c 4
 529 1447 422 1373 422 1264 c 4
800 324 m 0
 800 116 600 -20 370 -20 c 0
 194 -20 21 71 21 262 c 0
 21 344 82 426 162 426 c 0
 223 426 270 386 270 314 c 0
 270 250 215 204 156 204 c 0
 129 204 111 211 103 215 c 1
 113 117 225 53 370 53 c 0
 561 53 659 153 659 247 c 0
 659 479 139 403 139 689 c 0
 139 834 296 948 384 1000 c 1
 456 980 l 1
 438 957 340 894 340 814 c 0
 340 552 800 687 800 324 c 0
EndSplineSet
EndChar

StartChar: brokenbar
Encoding: 166 166 102
GlifName: brokenbar
Width: 439
VWidth: 2309
Flags: HMW
LayerCount: 2
Fore
SplineSet
184 332 m 1
 252 332 l 1
 61 -500 l 1
 -9 -500 l 1
 184 332 l 1
467 1561 m 1
 537 1561 l 1
 365 818 l 1
 295 818 l 1
 467 1561 l 1
EndSplineSet
EndChar

StartChar: asciitilde
Encoding: 126 126 104
GlifName: asciitilde
Width: 1375
VWidth: 2309
Flags: HMW
LayerCount: 2
Fore
SplineSet
582 874 m 0
 477 874 396 831 356 686 c 1
 283 686 l 5
 323 916 460 1020 618 1020 c 0
 839 1020 842 832 1014 832 c 0
 1140 832 1220 875 1260 1020 c 1
 1332 1020 l 1
 1292 790 1156 686 998 686 c 0
 764 686 728 874 582 874 c 0
EndSplineSet
EndChar

StartChar: copyright
Encoding: 169 169 105
GlifName: copyright
Width: 1739
Flags: HMW
LayerCount: 2
Fore
SplineSet
170 609 m 4
 170 1075 614 1520 1080 1520 c 4
 1467 1520 1750 1278 1750 891 c 4
 1750 425 1306 -20 840 -20 c 4
 453 -20 170 222 170 609 c 4
243 609 m 4
 243 261 492 53 840 53 c 4
 1266 53 1677 465 1677 891 c 4
 1677 1231 1426 1447 1080 1447 c 4
 654 1447 243 1035 243 609 c 4
EndSplineSet
Refer: 14 67 N 0.6 0 0 0.6 464 300 2
EndChar

StartChar: registered
Encoding: 174 174 106
GlifName: registered
Width: 1739
Flags: HMW
LayerCount: 2
Fore
SplineSet
170 609 m 4
 170 1075 614 1520 1080 1520 c 4
 1467 1520 1750 1278 1750 891 c 4
 1750 425 1306 -20 840 -20 c 4
 453 -20 170 222 170 609 c 4
243 609 m 4
 243 261 492 53 840 53 c 4
 1266 53 1677 465 1677 891 c 4
 1677 1231 1426 1447 1080 1447 c 4
 654 1447 243 1035 243 609 c 4
EndSplineSet
Refer: 29 82 N 0.6 0 0 0.6 516 296 2
EndChar

StartChar: logicalnot
Encoding: 172 172 107
GlifName: logicalnot
Width: 971
Flags: HMW
LayerCount: 2
Fore
SplineSet
942 1156 m 5
 300 1156 l 1
 300 1230 l 1
 1032 1230 l 1
 941 826 l 1
 869 826 l 5
 942 1156 l 5
EndSplineSet
EndChar

StartChar: guillemotleft
Encoding: 171 171 108
GlifName: guillemotleft
Width: 1389
Flags: HMW
LayerCount: 2
Fore
SplineSet
962 775 m 1
 1309 328 l 5
 1270 290 l 1
 710 750 l 1
 710 800 l 1
 1490 1260 l 1
 1528 1222 l 1
 962 775 l 1
402 775 m 1
 748 328 l 5
 710 290 l 1
 150 750 l 1
 150 800 l 1
 930 1260 l 1
 969 1222 l 1
 402 775 l 1
EndSplineSet
EndChar

StartChar: mu
Encoding: 181 181 111
GlifName: mu
Width: 1233
VWidth: 2309
Flags: HMW
LayerCount: 2
Fore
SplineSet
100 -182 m 2
 60 -358 94 -443 177 -457 c 5
 177 -455 l 1
 156 -424 152 -388 152 -352 c 0
 152 -286 204 -246 270 -246 c 0
 336 -246 389 -304 389 -380 c 0
 389 -458 346 -520 200 -520 c 0
 20 -520 -19 -371 25 -182 c 2
 216 643 l 1
 289 643 l 1
 100 -182 l 2
EndSplineSet
Refer: 58 117 N 1 0 0 1 0 0 2
EndChar

StartChar: asciicircum
Encoding: 94 94 113
GlifName: asciicircum
Width: 1089
Flags: HMW
LayerCount: 2
Fore
SplineSet
816 1445 m 1
 469 1211 l 5
 420 1260 l 1
 760 1540 l 1
 891 1540 l 1
 1109 1260 l 1
 1065 1216 l 1
 816 1445 l 1
EndSplineSet
EndChar

StartChar: degree
Encoding: 176 176 115
GlifName: degree
Width: 639
Flags: HMW
LayerCount: 2
Fore
SplineSet
389 1359 m 4
 389 1491 496 1600 628 1600 c 4
 760 1600 868 1491 868 1359 c 4
 868 1227 760 1120 628 1120 c 4
 496 1120 389 1227 389 1359 c 4
498 1359 m 4
 498 1285 554 1230 628 1230 c 4
 702 1230 758 1285 758 1359 c 4
 758 1433 702 1490 628 1490 c 4
 554 1490 498 1433 498 1359 c 4
EndSplineSet
EndChar

StartChar: onequarter
Encoding: 188 188 119
GlifName: onequarter
Width: 1281
Flags: HMW
LayerCount: 2
Fore
SplineSet
1203 1300 m 1
 1271 1300 l 1
 34 -200 l 5
 -34 -200 l 1
 1203 1300 l 1
EndSplineSet
Refer: 6 52 N 0.6 0 0 0.6 480 -206 2
Refer: 3 49 N 0.6 0 0 0.6 204 712 2
EndChar

StartChar: onehalf
Encoding: 189 189 120
GlifName: onehalf
Width: 1339
Flags: HMW
LayerCount: 2
Fore
SplineSet
1203 1300 m 1
 1271 1300 l 1
 34 -200 l 5
 -34 -200 l 1
 1203 1300 l 1
EndSplineSet
Refer: 4 50 N 0.6 0 0 0.6 682 -202 2
Refer: 3 49 N 0.6 0 0 0.6 204 712 2
EndChar

StartChar: threequarters
Encoding: 190 190 121
GlifName: threequarters
Width: 1401
Flags: HMW
LayerCount: 2
Fore
SplineSet
1324 1300 m 1
 1393 1300 l 1
 154 -200 l 1
 86 -200 l 1
 1324 1300 l 1
EndSplineSet
Refer: 5 51 N 0.6 0 0 0.6 170 708 2
Refer: 6 52 N 0.6 0 0 0.6 600 -206 2
EndChar

StartChar: grave
Encoding: 96 96 123
GlifName: grave
Width: 789
Flags: HMW
LayerCount: 2
Fore
SplineSet
448 1439 m 6
 410 1442 378 1472 378 1510 c 0
 378 1548 411 1588 468 1576 c 6
 952 1477 l 5
 934 1403 l 1
 448 1439 l 6
EndSplineSet
EndChar

StartChar: acute
Encoding: 180 180 124
GlifName: acute
Width: 789
Flags: HMW
LayerCount: 2
Fore
SplineSet
949 1439 m 2
 464 1403 l 1
 445 1477 l 1
 930 1576 l 2
 987 1588 1020 1548 1020 1510 c 0
 1020 1472 987 1442 949 1439 c 2
EndSplineSet
EndChar

StartChar: multiply
Encoding: 215 215 127
GlifName: multiply
Width: 1059
Flags: HMW
LayerCount: 2
Fore
SplineSet
791 311 m 5
 340 891 l 5
 399 949 l 1
 850 369 l 1
 791 311 l 5
209 371 m 1
 920 951 l 1
 977 894 l 1
 267 313 l 1
 209 371 l 1
EndSplineSet
EndChar

StartChar: cedilla
Encoding: 184 184 128
GlifName: cedilla
Width: 1099
Flags: HMW
LayerCount: 2
Fore
SplineSet
457 -158 m 1
 697 82 l 1
 787 82 l 1
 547 -158 l 1
 457 -158 l 1
475 -158 m 1
 574 -78 l 1
 736 -78 828 -121 828 -221 c 0
 828 -341 664 -439 462 -439 c 1
 462 -367 l 1
 580 -367 678 -318 678 -245 c 4
 678 -183 605 -158 475 -158 c 1
EndSplineSet
EndChar

StartChar: divide
Encoding: 247 247 131
GlifName: divide
Width: 1119
Flags: HMW
LayerCount: 2
Fore
SplineSet
188 826 m 5
 1107 826 l 5
 1107 754 l 1
 188 754 l 1
 188 826 l 5
439 420 m 4
 439 486 495 540 561 540 c 4
 627 540 680 486 680 420 c 4
 680 354 627 300 561 300 c 4
 495 300 439 354 439 420 c 4
600 1130 m 4
 600 1196 655 1250 721 1250 c 4
 787 1250 840 1196 840 1130 c 4
 840 1064 787 1010 721 1010 c 4
 655 1010 600 1064 600 1130 c 4
EndSplineSet
EndChar

StartChar: ring
Encoding: 730 730 271
GlifName: ring
Width: 639
VWidth: 0
Flags: HMW
LayerCount: 2
Fore
SplineSet
379 1359 m 4
 379 1461 457 1540 559 1540 c 4
 661 1540 739 1461 739 1359 c 4
 739 1257 661 1180 559 1180 c 4
 457 1180 379 1257 379 1359 c 4
458 1359 m 4
 458 1290 504 1254 559 1254 c 4
 614 1254 660 1290 660 1359 c 4
 660 1428 614 1467 559 1467 c 4
 504 1467 458 1428 458 1359 c 4
EndSplineSet
EndChar

StartChar: tilde
Encoding: 732 732 272
GlifName: tilde
Width: 895
VWidth: 0
Flags: HMW
LayerCount: 2
Fore
SplineSet
482 1338 m 0
 416 1338 382 1290 347 1200 c 1
 273 1200 l 1
 313 1370 450 1454 548 1454 c 0
 702 1454 762 1296 854 1296 c 0
 920 1296 959 1350 989 1434 c 1
 1062 1434 l 1
 1022 1245 907 1180 809 1180 c 0
 641 1180 587 1338 482 1338 c 0
EndSplineSet
EndChar

StartChar: AE
Encoding: 198 198 274
GlifName: A_E_
Width: 2000
Flags: HMW
LayerCount: 2
Fore
SplineSet
1357 1500 m 1
 2188 1500 l 1
 2092 1090 l 1
 2019 1090 l 1
 2069 1304 2039 1427 1805 1427 c 2
 1357 1427 l 1
 1357 1500 l 1
1456 739 m 2
 1314 739 l 1
 1314 812 l 1
 1456 812 l 2
 1569 812 1659 852 1688 986 c 1
 1762 986 l 1
 1663 557 l 1
 1590 557 l 1
 1619 691 1569 739 1456 739 c 2
1859 0 m 1
 800 0 l 1
 800 73 l 1
 1457 73 l 2
 1730 73 1832 196 1891 450 c 1
 1964 450 l 1
 1859 0 l 1
1318 1500 m 1
 1508 1500 l 1
 1160 0 l 1
 971 0 l 1
 1318 1500 l 1
510 526 m 1
 1109 526 l 1
 1109 453 l 1
 510 453 l 1
 510 526 l 1
1262 1500 m 5
 1351 1500 l 5
 150 0 l 1
 52 0 l 1
 1262 1500 l 5
-50 73 m 1
 391 73 l 1
 391 0 l 1
 -50 0 l 1
 -50 73 l 1
EndSplineSet
EndChar

StartChar: Eth
Encoding: 208 208 275
GlifName: E_th
Width: 1389
Flags: HMW
LayerCount: 2
Fore
SplineSet
176 787 m 5
 656 787 l 5
 656 713 l 1
 176 713 l 1
 176 787 l 5
479 1500 m 1
 668 1500 l 1
 328 0 l 1
 138 0 l 1
 479 1500 l 1
527 0 m 2
 -42 0 l 1
 -42 73 l 1
 527 73 l 2
 955 73 1197 646 1197 1070 c 0
 1197 1254 1115 1427 867 1427 c 2
 277 1427 l 1
 277 1500 l 1
 867 1500 l 2
 1193 1500 1418 1316 1418 990 c 0
 1418 444 1013 0 527 0 c 2
EndSplineSet
EndChar

StartChar: ae
Encoding: 230 230 277
GlifName: ae
Width: 1525
VWidth: 2309
Flags: HMW
LayerCount: 2
Fore
SplineSet
548 539 m 2
 695 539 l 1
 695 465 l 1
 548 465 l 2
 376 465 240 360 240 176 c 0
 240 82 289 53 359 53 c 0
 472 53 593 166 637 361 c 2
 691 609 l 2
 718 737 726 863 566 863 c 0
 478 863 422 845 389 830 c 1
 426 816 448 785 448 736 c 0
 448 656 380 622 330 622 c 0
 269 622 227 660 227 732 c 0
 227 856 404 936 586 936 c 0
 846 936 864 771 832 609 c 1
 746 361 l 1
 700 113 563 -20 340 -20 c 0
 182 -20 36 38 36 186 c 0
 36 374 224 539 548 539 c 2
1336 754 m 0
 1336 834 1304 871 1232 871 c 0
 1054 871 838 607 838 279 c 0
 838 131 890 62 1008 62 c 0
 1174 62 1266 171 1352 286 c 5
 1428 286 l 1
 1350 132 1191 -20 968 -20 c 0
 806 -20 670 80 670 320 c 1
 710 311 l 1
 714 691 972 939 1232 939 c 0
 1396 939 1518 889 1518 744 c 0
 1518 424 1043 407 820 407 c 1
 820 471 l 1
 1038 471 1336 490 1336 754 c 0
EndSplineSet
EndChar

StartChar: perthousand
Encoding: 8240 8240 285
GlifName: perthousand
Width: 2939
Flags: HMW
LayerCount: 2
Fore
SplineSet
2399 -20 m 4
 2213 -20 2100 73 2100 279 c 4
 2100 605 2314 859 2580 859 c 4
 2766 859 2879 767 2879 561 c 4
 2879 235 2665 -20 2399 -20 c 4
2580 787 m 4
 2432 787 2299 504 2299 240 c 4
 2299 116 2331 53 2399 53 c 4
 2547 53 2680 336 2680 600 c 4
 2680 724 2648 787 2580 787 c 4
1460 -20 m 4
 1274 -20 1160 73 1160 279 c 4
 1160 605 1375 859 1641 859 c 4
 1827 859 1939 767 1939 561 c 4
 1939 235 1726 -20 1460 -20 c 4
1641 787 m 4
 1493 787 1359 504 1359 240 c 4
 1359 116 1392 53 1460 53 c 4
 1608 53 1740 336 1740 600 c 4
 1740 724 1709 787 1641 787 c 4
1691 1500 m 5
 1790 1500 l 5
 484 0 l 5
 387 0 l 5
 1691 1500 l 5
550 641 m 4
 364 641 250 733 250 939 c 4
 250 1265 464 1520 730 1520 c 4
 916 1520 1029 1427 1029 1221 c 4
 1029 895 816 641 550 641 c 4
730 1447 m 4
 582 1447 450 1164 450 900 c 4
 450 776 482 713 550 713 c 4
 698 713 830 996 830 1260 c 4
 830 1384 798 1447 730 1447 c 4
EndSplineSet
EndChar

StartChar: uni2031
Encoding: 8241 8241 286
GlifName: uni2031
Width: 3919
Flags: HMW
LayerCount: 2
Fore
SplineSet
3380 -20 m 0
 3194 -20 3080 73 3080 279 c 0
 3080 605 3295 859 3561 859 c 0
 3747 859 3859 767 3859 561 c 0
 3859 235 3646 -20 3380 -20 c 0
3561 787 m 0
 3413 787 3279 504 3279 240 c 0
 3279 116 3312 53 3380 53 c 0
 3528 53 3660 336 3660 600 c 0
 3660 724 3629 787 3561 787 c 0
2399 -20 m 0
 2213 -20 2100 73 2100 279 c 0
 2100 605 2314 859 2580 859 c 0
 2766 859 2879 767 2879 561 c 0
 2879 235 2665 -20 2399 -20 c 0
2580 787 m 0
 2432 787 2299 504 2299 240 c 0
 2299 116 2331 53 2399 53 c 0
 2547 53 2680 336 2680 600 c 0
 2680 724 2648 787 2580 787 c 0
1460 -20 m 0
 1274 -20 1160 73 1160 279 c 0
 1160 605 1375 859 1641 859 c 0
 1827 859 1939 767 1939 561 c 0
 1939 235 1726 -20 1460 -20 c 0
1641 787 m 0
 1493 787 1359 504 1359 240 c 0
 1359 116 1392 53 1460 53 c 0
 1608 53 1740 336 1740 600 c 0
 1740 724 1709 787 1641 787 c 0
1691 1500 m 1
 1790 1500 l 1
 484 0 l 1
 387 0 l 1
 1691 1500 l 1
550 641 m 0
 364 641 250 733 250 939 c 0
 250 1265 464 1520 730 1520 c 0
 916 1520 1029 1427 1029 1221 c 0
 1029 895 816 641 550 641 c 0
730 1447 m 0
 582 1447 450 1164 450 900 c 0
 450 776 482 713 550 713 c 0
 698 713 830 996 830 1260 c 0
 830 1384 798 1447 730 1447 c 0
EndSplineSet
EndChar

StartChar: uniFB00
Encoding: 64256 64256 290
GlifName: uniF_B_00
Width: 1251
VWidth: 2309
Flags: HMW
LayerCount: 2
Fore
SplineSet
113 920 m 1
 1314 920 l 1
 1314 847 l 1
 113 847 l 1
 113 920 l 1
1443 1418 m 1
 1425 1432 1391 1447 1336 1447 c 0
 1195 1447 1099 1324 1055 1080 c 2
 874 76 l 2
 828 -174 666 -420 387 -420 c 0
 205 -420 142 -306 142 -222 c 0
 142 -140 195 -98 256 -98 c 0
 306 -98 367 -126 367 -206 c 0
 367 -276 318 -318 269 -318 c 0
 268 -318 267 -318 266 -318 c 1
 284 -332 332 -347 387 -347 c 0
 528 -347 647 -224 689 20 c 2
 860 1023 l 2
 904 1275 1076 1520 1336 1520 c 0
 1498 1520 1562 1406 1562 1322 c 0
 1562 1240 1510 1198 1449 1198 c 0
 1399 1198 1335 1227 1335 1307 c 0
 1335 1377 1391 1418 1440 1418 c 0
 1441 1418 1442 1418 1443 1418 c 1
899 1318 m 1
 881 1332 833 1347 778 1347 c 0
 614 1347 517 1224 473 980 c 2
 292 -23 l 2
 246 -273 86 -520 -174 -520 c 0
 -336 -520 -400 -406 -400 -322 c 0
 -400 -240 -347 -198 -286 -198 c 0
 -236 -198 -174 -227 -174 -307 c 0
 -174 -377 -223 -418 -272 -418 c 0
 -273 -418 -274 -418 -275 -418 c 1
 -257 -432 -229 -447 -174 -447 c 0
 -33 -447 65 -324 107 -80 c 2
 277 924 l 2
 321 1176 494 1420 778 1420 c 0
 955 1420 1020 1306 1020 1222 c 0
 1020 1140 966 1098 905 1098 c 0
 855 1098 791 1126 791 1206 c 0
 791 1276 847 1318 896 1318 c 0
 897 1318 898 1318 899 1318 c 1
EndSplineSet
Ligature2: "'liga' Standard Ligatures lookup 0-1" f f
LCarets2: 1 0
EndChar

StartChar: uniFB01
Encoding: 64257 64257 291
GlifName: uniF_B_01
Width: 1264
VWidth: 2309
Flags: HMW
LayerCount: 2
Fore
SplineSet
1154 326 m 1
 1078 126 976 -20 809 -20 c 0
 705 -20 656 26 656 126 c 0
 656 136 658 158 660 170 c 2
 813 847 l 1
 115 847 l 1
 115 920 l 1
 1011 920 l 1
 830 145 l 2
 827 133 826 119 826 109 c 0
 826 88 838 71 863 71 c 0
 941 71 1037 216 1083 348 c 1
 1154 326 l 1
961 1418 m 1
 943 1432 888 1447 814 1447 c 0
 654 1447 538 1324 494 1080 c 2
 292 -23 l 2
 246 -273 86 -520 -174 -520 c 0
 -336 -520 -400 -406 -400 -322 c 0
 -400 -240 -347 -198 -286 -198 c 0
 -236 -198 -174 -227 -174 -307 c 0
 -174 -377 -223 -418 -272 -418 c 0
 -273 -418 -274 -418 -275 -418 c 1
 -257 -432 -229 -447 -174 -447 c 0
 -33 -447 65 -324 107 -80 c 2
 300 1023 l 2
 344 1275 520 1520 814 1520 c 0
 1010 1520 1080 1406 1080 1322 c 0
 1080 1240 1028 1198 967 1198 c 0
 917 1198 854 1227 854 1307 c 0
 854 1377 909 1418 958 1418 c 0
 959 1418 960 1418 961 1418 c 1
EndSplineSet
Ligature2: "'liga' Standard Ligatures lookup 0-1" f i
LCarets2: 1 0
EndChar

StartChar: uniFB02
Encoding: 64258 64258 292
GlifName: uniF_B_02
Width: 1257
VWidth: 2309
Flags: HMW
LayerCount: 2
Fore
SplineSet
1208 326 m 1
 1132 126 1029 -20 861 -20 c 0
 757 -20 710 26 710 126 c 0
 710 136 712 158 715 170 c 2
 1010 1460 l 1
 1208 1540 l 1
 885 145 l 2
 882 133 881 119 881 109 c 0
 881 88 891 70 916 70 c 0
 994 70 1091 216 1137 348 c 1
 1208 326 l 1
113 920 m 1
 753 920 l 1
 753 847 l 1
 113 847 l 1
 113 920 l 1
1080 1322 m 0
 1080 1240 1028 1198 967 1198 c 0
 917 1198 854 1227 854 1307 c 0
 854 1377 909 1418 958 1418 c 0
 959 1418 960 1418 961 1418 c 1
 943 1432 888 1447 814 1447 c 0
 654 1447 538 1324 494 1080 c 2
 292 -23 l 2
 246 -273 86 -520 -174 -520 c 0
 -336 -520 -400 -406 -400 -322 c 0
 -400 -240 -347 -198 -286 -198 c 0
 -236 -198 -174 -227 -174 -307 c 0
 -174 -377 -223 -418 -272 -418 c 0
 -273 -418 -274 -418 -275 -418 c 1
 -257 -432 -229 -447 -174 -447 c 0
 -33 -447 65 -324 107 -80 c 2
 300 1023 l 2
 344 1275 520 1520 814 1520 c 0
 1007 1520 1080 1411 1080 1322 c 0
EndSplineSet
Ligature2: "'liga' Standard Ligatures lookup 0-1" f l
LCarets2: 1 0
EndChar

StartChar: uniFB03
Encoding: 64259 64259 293
GlifName: uniF_B_03
Width: 1826
VWidth: 2309
Flags: HMW
LayerCount: 2
Fore
SplineSet
1717 326 m 5
 1641 126 1537 -20 1370 -20 c 4
 1266 -20 1219 26 1219 126 c 4
 1219 136 1221 158 1223 170 c 6
 1375 847 l 5
 115 847 l 5
 115 920 l 5
 1572 920 l 5
 1393 145 l 6
 1390 133 1389 119 1389 109 c 4
 1389 88 1399 71 1424 71 c 4
 1502 71 1599 216 1645 348 c 5
 1717 326 l 5
1642 1322 m 0
 1642 1240 1588 1198 1527 1198 c 0
 1477 1198 1416 1227 1416 1307 c 0
 1416 1377 1469 1418 1518 1418 c 0
 1519 1418 1520 1418 1521 1418 c 1
 1503 1432 1451 1447 1377 1447 c 0
 1217 1447 1100 1324 1056 1080 c 2
 873 68 l 2
 827 -182 653 -428 388 -428 c 0
 226 -428 143 -313 143 -229 c 0
 143 -147 195 -105 256 -105 c 0
 306 -105 368 -133 368 -213 c 0
 368 -283 319 -325 270 -325 c 0
 269 -325 268 -325 267 -325 c 1
 285 -339 333 -354 388 -354 c 0
 529 -354 647 -231 689 13 c 2
 861 1023 l 2
 905 1275 1083 1520 1377 1520 c 0
 1561 1520 1642 1424 1642 1322 c 0
900 1318 m 1
 882 1332 849 1347 775 1347 c 0
 615 1347 518 1224 474 980 c 2
 292 -23 l 2
 246 -273 86 -520 -174 -520 c 0
 -336 -520 -400 -406 -400 -322 c 0
 -400 -240 -347 -198 -286 -198 c 0
 -236 -198 -174 -227 -174 -307 c 0
 -174 -377 -223 -418 -272 -418 c 0
 -273 -418 -274 -418 -275 -418 c 1
 -257 -432 -229 -447 -174 -447 c 0
 -33 -447 65 -324 107 -80 c 2
 279 924 l 2
 323 1176 491 1420 775 1420 c 0
 957 1420 1021 1306 1021 1222 c 0
 1021 1140 967 1098 906 1098 c 0
 856 1098 795 1126 795 1206 c 0
 795 1276 848 1318 897 1318 c 0
 898 1318 899 1318 900 1318 c 1
EndSplineSet
Ligature2: "'liga' Standard Ligatures lookup 0-1" f f i
LCarets2: 2 0 0
EndChar

StartChar: uniFB04
Encoding: 64260 64260 294
GlifName: uniF_B_04
Width: 1816
VWidth: 2309
Flags: HMWO
LayerCount: 2
Fore
SplineSet
1768 326 m 5
 1692 126 1589 -20 1421 -20 c 4
 1317 -20 1270 26 1270 126 c 4
 1270 136 1270 158 1273 170 c 6
 1568 1460 l 5
 1768 1540 l 5
 1443 145 l 6
 1440 133 1439 119 1439 109 c 4
 1439 88 1451 70 1476 70 c 4
 1554 70 1649 216 1695 348 c 5
 1768 326 l 5
113 920 m 5
 1312 920 l 5
 1312 847 l 5
 113 847 l 5
 113 920 l 5
1520 1418 m 5
 1502 1432 1448 1447 1374 1447 c 4
 1214 1447 1097 1324 1053 1080 c 6
 874 76 l 6
 828 -174 668 -420 389 -420 c 4
 202 -420 143 -306 143 -222 c 4
 143 -140 196 -98 257 -98 c 4
 307 -98 369 -126 369 -206 c 4
 369 -276 320 -318 271 -318 c 4
 270 -318 269 -318 268 -318 c 5
 286 -332 334 -347 389 -347 c 4
 530 -347 647 -224 689 20 c 6
 859 1023 l 6
 903 1275 1080 1520 1374 1520 c 4
 1570 1520 1639 1406 1639 1322 c 4
 1639 1240 1586 1198 1525 1198 c 4
 1475 1198 1413 1227 1413 1307 c 4
 1413 1377 1468 1418 1517 1418 c 4
 1518 1418 1519 1418 1520 1418 c 5
900 1318 m 5
 882 1332 849 1347 775 1347 c 4
 615 1347 518 1224 474 980 c 6
 292 -23 l 6
 246 -273 86 -520 -174 -520 c 4
 -336 -520 -400 -406 -400 -322 c 4
 -400 -240 -347 -198 -286 -198 c 4
 -236 -198 -174 -227 -174 -307 c 4
 -174 -377 -223 -418 -272 -418 c 4
 -273 -418 -274 -418 -275 -418 c 5
 -257 -432 -229 -447 -174 -447 c 4
 -33 -447 65 -324 107 -80 c 6
 279 924 l 6
 323 1176 491 1420 775 1420 c 4
 957 1420 1021 1306 1021 1222 c 4
 1021 1140 967 1098 906 1098 c 4
 856 1098 795 1126 795 1206 c 4
 795 1276 848 1318 897 1318 c 4
 898 1318 899 1318 900 1318 c 5
EndSplineSet
Ligature2: "'liga' Standard Ligatures lookup 0-1" f f l
LCarets2: 2 0 0
EndChar

StartChar: ogonek
Encoding: 731 731 295
GlifName: ogonek
Width: 1099
Flags: HMW
LayerCount: 2
Fore
SplineSet
637 -227 m 1
 608 -284 549 -372 406 -372 c 0
 304 -372 200 -341 200 -221 c 0
 200 -61 411 75 533 115 c 5
 557 64 l 5
 495 30 387 -52 387 -189 c 0
 387 -249 425 -277 473 -277 c 0
 526 -277 559 -244 580 -202 c 1
 637 -227 l 1
EndSplineSet
EndChar

StartChar: dotlessi
Encoding: 305 305 296
GlifName: dotlessi
Width: 717
VWidth: 2309
Flags: HMW
LayerCount: 2
Fore
SplineSet
607 326 m 1
 531 126 429 -20 262 -20 c 0
 158 -20 109 26 109 126 c 0
 109 136 111 158 113 170 c 2
 267 847 l 1
 141 847 l 1
 141 920 l 1
 464 920 l 1
 283 145 l 2
 280 133 279 119 279 109 c 0
 279 88 291 71 316 71 c 0
 394 71 490 216 536 348 c 1
 607 326 l 1
EndSplineSet
EndChar

StartChar: uni0237
Encoding: 567 567 297
GlifName: uni0237
Width: 543
VWidth: 2309
Flags: HMW
LayerCount: 2
Fore
SplineSet
-238 -398 m 1
 -218 -428 -180 -447 -145 -447 c 0
 35 -447 91 -202 137 40 c 2
 288 847 l 1
 116 847 l 1
 116 920 l 1
 477 920 l 1
 299 -23 l 2
 252 -274 126 -520 -134 -520 c 0
 -277 -520 -340 -396 -340 -322 c 0
 -340 -225 -277 -178 -216 -178 c 0
 -166 -178 -113 -212 -113 -286 c 0
 -113 -321 -128 -350 -149 -368 c 0
 -168 -385 -201 -398 -238 -398 c 1
EndSplineSet
EndChar

StartChar: kgreenlandic
Encoding: 312 312 306
GlifName: kgreenlandic
Width: 1123
VWidth: 2309
Flags: HMW
LayerCount: 2
Fore
SplineSet
1080 326 m 1
 994 106 895 -20 728 -20 c 0
 634 -20 582 26 582 126 c 0
 582 136 583 158 586 170 c 2
 609 279 l 2
 634 395 705 542 557 542 c 0
 414 542 386 448 368 380 c 1
 305 380 l 1
 349 564 470 611 572 611 c 0
 711 611 834 502 773 242 c 2
 746 121 l 2
 745 117 744 108 744 104 c 0
 744 83 759 71 784 71 c 0
 870 71 962 216 1008 348 c 1
 1080 326 l 1
376 451 m 1
 404 521 l 1
 420 496 449 482 484 482 c 0
 545 482 587 597 639 725 c 0
 696 862 765 939 880 939 c 0
 970 939 1044 881 1044 777 c 0
 1044 687 991 658 941 658 c 0
 891 658 842 692 842 758 c 0
 842 815 881 852 938 852 c 0
 942 852 947 852 949 852 c 1
 935 861 913 867 887 867 c 0
 825 867 767 842 715 712 c 0
 660 575 599 412 484 412 c 0
 446 412 400 430 376 451 c 1
295 847 m 1
 133 847 l 1
 133 920 l 1
 493 920 l 1
 279 0 l 1
 100 0 l 1
 295 847 l 1
EndSplineSet
EndChar

StartChar: breve
Encoding: 728 728 307
GlifName: breve
Width: 559
VWidth: 2309
Flags: HMW
LayerCount: 2
Fore
SplineSet
393 1518 m 1
 373 1420 406 1370 500 1370 c 4
 594 1370 668 1420 688 1518 c 5
 760 1518 l 1
 740 1396 660 1260 480 1260 c 0
 320 1260 300 1396 320 1518 c 1
 393 1518 l 1
EndSplineSet
EndChar

StartChar: thorn
Encoding: 254 254 318
GlifName: thorn
Width: 1145
VWidth: 2309
Flags: HMW
LayerCount: 2
Fore
SplineSet
348 302 m 4
 348 156 427 82 509 82 c 4
 712 82 867 365 867 625 c 4
 867 758 809 839 702 839 c 4
 479 839 348 510 348 302 c 4
291 302 m 4
 291 518 445 939 757 939 c 4
 896 939 1061 850 1061 615 c 4
 1061 289 819 -20 543 -20 c 4
 371 -20 291 118 291 302 c 4
-141 -427 m 1
 310 -427 l 1
 310 -500 l 1
 -141 -500 l 1
 -141 -427 l 1
420 1427 m 1
 294 1427 l 1
 294 1500 l 1
 618 1500 l 1
 410 588 l 1
 359 426 l 1
 348 305 l 1
 160 -500 l 1
 -20 -500 l 1
 420 1427 l 1
EndSplineSet
EndChar

StartChar: Thorn
Encoding: 222 222 319
GlifName: T_horn
Width: 1209
Flags: HMW
LayerCount: 2
Fore
SplineSet
600 359 m 2
 380 359 l 1
 380 434 l 1
 600 434 l 2
 871 434 1029 662 1029 880 c 0
 1029 998 991 1127 800 1127 c 6
 510 1127 l 5
 510 1200 l 1
 800 1200 l 2
 1062 1200 1250 1099 1250 859 c 0
 1250 559 1002 359 600 359 c 2
-50 73 m 1
 500 73 l 1
 500 0 l 1
 -50 0 l 1
 -50 73 l 1
296 1500 m 1
 846 1500 l 1
 846 1427 l 1
 296 1427 l 1
 296 1500 l 1
477 1500 m 1
 666 1500 l 1
 320 0 l 1
 130 0 l 1
 477 1500 l 1
EndSplineSet
EndChar

StartChar: Lslash
Encoding: 321 321 324
GlifName: L_slash
Width: 1156
Flags: HMW
LayerCount: 2
Fore
SplineSet
70 721 m 1
 760 1160 l 1
 760 1070 l 5
 70 631 l 5
 70 721 l 1
EndSplineSet
Refer: 23 76 N 1 0 0 1 0 0 2
EndChar

StartChar: lslash
Encoding: 322 322 325
GlifName: lslash
Width: 637
VWidth: 2309
Flags: HMW
LayerCount: 2
Fore
SplineSet
80 800 m 1
 650 1160 l 1
 650 1072 l 5
 80 712 l 5
 80 800 l 1
EndSplineSet
Refer: 49 108 N 1 0 0 1 0 0 2
EndChar

StartChar: eth
Encoding: 240 240 329
GlifName: eth
Width: 1119
VWidth: 2309
Flags: HMW
LayerCount: 2
Fore
SplineSet
420 1260 m 1
 1260 1260 l 1
 1260 1188 l 1
 420 1188 l 1
 420 1260 l 1
1113 800 m 0
 1113 380 815 -20 473 -20 c 0
 231 -20 80 80 80 340 c 0
 80 760 416 980 658 980 c 0
 920 980 937 814 937 580 c 1
 889 660 l 1
 889 801 828 889 702 889 c 0
 484 889 279 648 279 300 c 0
 279 152 322 53 466 53 c 4
 674 53 889 431 889 660 c 1
 914 721 l 1
 914 1065 879 1453 471 1453 c 1
 471 1520 l 1
 916 1520 1113 1187 1113 800 c 0
EndSplineSet
EndChar

StartChar: OE
Encoding: 338 338 330
GlifName: O_E_
Width: 1899
Flags: HMW
LayerCount: 2
Fore
SplineSet
979 1500 m 1
 979 1427 l 1
 611 1427 368 855 368 391 c 0
 368 187 433 73 641 73 c 5
 641 0 l 1
 334 0 148 184 148 510 c 0
 148 1056 553 1500 979 1500 c 1
EndSplineSet
Refer: 16 69 N 1 0 0 1 730 0 2
EndChar

StartChar: germandbls
Encoding: 223 223 332
GlifName: germandbls
Width: 1361
VWidth: 2309
Flags: HMW
LayerCount: 2
Fore
SplineSet
1302 380 m 0
 1302 101 1075 -20 893 -20 c 0
 715 -20 616 87 616 232 c 0
 616 343 680 402 750 402 c 0
 811 402 857 362 857 290 c 0
 857 226 803 180 744 180 c 0
 723 180 711 183 697 187 c 1
 699 130 763 53 872 53 c 4
 1050 53 1100 192 1100 380 c 0
 1100 568 1024 775 786 775 c 1
 786 826 l 1
 1147 826 1302 640 1302 380 c 0
-30 73 m 1
 510 73 l 1
 510 0 l 1
 -30 0 l 1
 -30 73 l 1
786 795 m 1
 786 847 l 1
 1044 847 1221 1034 1221 1202 c 0
 1221 1347 1174 1453 966 1453 c 0
 678 1453 591 1232 529 962 c 2
 311 0 l 1
 130 0 l 1
 350 982 l 2
 424 1312 620 1520 966 1520 c 0
 1232 1520 1422 1408 1422 1202 c 0
 1422 981 1188 795 786 795 c 1
EndSplineSet
EndChar

StartChar: uni0212
Encoding: 530 530 333
GlifName: uni0212
Width: 1429
VWidth: 0
Flags: HMW
LayerCount: 2
Fore
SplineSet
1127 1641 m 1
 1147 1739 1108 1788 1020 1788 c 4
 932 1788 853 1739 833 1641 c 1
 760 1641 l 1
 780 1763 860 1898 1040 1898 c 0
 1220 1898 1220 1763 1200 1641 c 1
 1127 1641 l 1
EndSplineSet
Refer: 29 82 N 1 0 0 1 0 0 3
EndChar

StartChar: uni0213
Encoding: 531 531 334
GlifName: uni0213
Width: 838
VWidth: 0
Flags: HMW
LayerCount: 2
Fore
SplineSet
713 1061 m 5
 733 1159 693 1208 605 1208 c 0
 517 1208 440 1159 420 1061 c 1
 346 1061 l 1
 366 1183 446 1318 626 1318 c 0
 806 1318 806 1183 786 1061 c 1
 713 1061 l 5
EndSplineSet
Refer: 55 114 N 1 0 0 1 0 0 3
EndChar

StartChar: circumflex
Encoding: 710 710 335
GlifName: circumflex
Width: 769
Flags: HMW
LayerCount: 2
Fore
SplineSet
645 1450 m 5
 361 1278 l 5
 320 1320 l 5
 584 1540 l 5
 714 1540 l 5
 891 1320 l 5
 843 1273 l 5
 645 1450 l 5
EndSplineSet
EndChar

StartChar: caron
Encoding: 711 711 336
GlifName: caron
Width: 769
Flags: HMW
LayerCount: 2
Fore
SplineSet
630 1430 m 1
 912 1602 l 1
 954 1561 l 1
 689 1340 l 1
 561 1340 l 1
 384 1561 l 1
 432 1607 l 1
 630 1430 l 1
EndSplineSet
EndChar

StartChar: pi
Encoding: 960 960 337
GlifName: pi
Width: 1161
VWidth: 2309
Flags: HMW
LayerCount: 2
Fore
SplineSet
148 -20 m 0
 66 -20 29 26 29 76 c 0
 29 213 259 193 359 559 c 2
 454 900 l 1
 566 900 l 1
 456 486 l 2
 378 190 285 -20 148 -20 c 0
1052 206 m 1
 1006 65 922 -20 796 -20 c 0
 722 -20 630 36 662 166 c 2
 832 840 l 1
 1012 840 l 1
 846 223 l 2
 826 149 863 130 896 130 c 4
 932 130 954 168 992 236 c 1
 1052 206 l 1
1191 920 m 1
 1132 740 l 1
 245 740 l 1
 209 590 l 1
 137 590 l 1
 214 920 l 1
 1191 920 l 1
EndSplineSet
EndChar

StartChar: uni1E9E
Encoding: 7838 7838 338
GlifName: uni1E_9E_
Width: 1601
VWidth: 2309
Flags: HMW
LayerCount: 2
Fore
SplineSet
590 271 m 4
 590 353 640 402 710 402 c 0
 771 402 818 362 818 290 c 0
 818 226 763 180 704 180 c 0
 700 180 694 180 686 182 c 1
 710 131 752 67 922 67 c 0
 1199 67 1330 231 1330 460 c 0
 1330 608 1283 775 1025 775 c 1
 1025 814 l 1
 1427 814 1542 681 1542 460 c 0
 1542 160 1284 -20 962 -20 c 4
 692 -20 590 126 590 271 c 4
-40 73 m 1
 520 73 l 1
 520 0 l 1
 -40 0 l 1
 -40 73 l 1
1025 790 m 1
 1025 847 l 1
 1382 847 1450 1114 1450 1242 c 0
 1450 1346 1414 1453 1126 1453 c 0
 778 1453 605 1187 529 861 c 2
 330 0 l 1
 130 0 l 1
 330 882 l 2
 418 1269 720 1520 1126 1520 c 0
 1513 1520 1662 1389 1662 1223 c 0
 1662 1063 1527 790 1025 790 c 1
EndSplineSet
EndChar

StartChar: uni203D
Encoding: 8253 8253 339
GlifName: uni203D_
Width: 1119
Flags: HMW
LayerCount: 2
Fore
SplineSet
836 1059 m 0
 796 847 654 716 574 416 c 1
 502 416 l 1
 563 716 600 846 600 998 c 0
 600 1109 631 1195 729 1195 c 0
 799 1195 852 1141 836 1059 c 0
1008 1221 m 0
 1008 1369 930 1445 752 1445 c 4
 568 1445 465 1355 426 1279 c 5
 429 1279 430 1279 434 1279 c 0
 493 1279 548 1240 548 1170 c 0
 548 1090 484 1059 434 1059 c 0
 373 1059 320 1100 320 1182 c 0
 320 1346 507 1520 771 1520 c 0
 994 1520 1210 1420 1210 1180 c 0
 1210 901 916 670 594 670 c 1
 594 708 l 1
 828 770 1008 975 1008 1221 c 0
EndSplineSet
Refer: 1 46 N 1 0 0 1 318 0 2
EndChar

StartChar: R.alt
Encoding: 65536 -1 340
GlifName: R_.alt
Width: 1379
Flags: HMW
LayerCount: 2
Fore
SplineSet
1230 0 m 1
 1198 0 1181 0 1109 0 c 0
 664 0 1133 733 660 733 c 2
 430 733 l 1
 430 770 l 1
 700 770 l 2
 1346 770 953 73 1180 73 c 0
 1201 73 1230 73 1230 73 c 1
 1230 0 l 1
471 1500 m 1
 660 1500 l 1
 311 0 l 1
 120 0 l 1
 471 1500 l 1
-80 73 m 1
 529 73 l 1
 529 0 l 1
 -80 0 l 1
 -80 73 l 1
721 764 m 2
 430 764 l 1
 430 807 l 5
 721 807 l 6
 992 807 1130 1023 1130 1221 c 0
 1130 1319 1111 1427 920 1427 c 2
 250 1427 l 1
 250 1500 l 1
 920 1500 l 2
 1182 1500 1350 1421 1350 1200 c 0
 1350 921 1123 764 721 764 c 2
EndSplineSet
EndChar

StartChar: J.alt
Encoding: 65537 -1 341
GlifName: J_.alt
Width: 1071
Flags: HMW
LayerCount: 2
Fore
SplineSet
672 1500 m 1
 1302 1500 l 1
 1302 1427 l 1
 672 1427 l 1
 672 1500 l 1
912 1500 m 1
 1102 1500 l 1
 882 561 l 2
 810 256 624 -20 302 -20 c 0
 88 -20 10 129 10 270 c 0
 10 415 84 480 164 480 c 0
 234 480 296 444 296 352 c 0
 296 282 242 227 154 227 c 0
 130 227 104 235 86 251 c 5
 96 129 159 53 302 53 c 4
 544 53 632 232 691 500 c 2
 912 1500 l 1
EndSplineSet
EndChar

StartChar: four.alt
Encoding: 65538 -1 342
GlifName: four.alt
Width: 1189
VWidth: 2309
Flags: HMW
LayerCount: 2
Fore
SplineSet
1040 996 m 1
 818 0 l 5
 629 0 l 1
 840 956 l 1
 901 956 1000 976 1040 996 c 1
984 73 m 1
 984 0 l 1
 454 0 l 1
 454 73 l 1
 984 73 l 1
154 427 m 1
 1090 427 l 1
 1090 354 l 1
 16 354 l 1
 295 754 899 1200 939 1500 c 1
 1137 1500 l 1
 1099 1210 454 816 154 427 c 1
EndSplineSet
EndChar

StartChar: fj.lig
Encoding: 65539 -1 343
GlifName: fj.lig
Width: 1075
VWidth: 2309
Flags: HMW
LayerCount: 2
Fore
SplineSet
678 20 m 2
 830 847 l 1
 115 847 l 1
 115 920 l 1
 1018 920 l 1
 861 76 l 2
 815 -176 654 -420 375 -420 c 0
 193 -420 130 -307 130 -223 c 0
 130 -141 183 -98 244 -98 c 0
 294 -98 355 -126 355 -206 c 0
 355 -271 314 -316 255 -316 c 0
 254 -316 253 -316 252 -316 c 1
 285 -339 344 -347 375 -347 c 0
 535 -347 632 -222 678 20 c 2
961 1418 m 1
 943 1432 888 1447 818 1447 c 0
 652 1447 540 1324 496 1080 c 2
 294 -23 l 2
 248 -273 88 -520 -172 -520 c 0
 -334 -520 -398 -406 -398 -322 c 0
 -398 -240 -345 -198 -284 -198 c 0
 -234 -198 -172 -227 -172 -307 c 0
 -172 -382 -227 -418 -270 -418 c 0
 -271 -418 -272 -418 -273 -418 c 1
 -255 -438 -217 -447 -172 -447 c 0
 -31 -447 67 -324 109 -80 c 2
 302 1023 l 2
 346 1275 518 1520 818 1520 c 0
 1020 1520 1084 1406 1084 1322 c 0
 1084 1240 1031 1198 970 1198 c 0
 920 1198 857 1227 857 1307 c 0
 857 1387 925 1418 958 1418 c 0
 959 1418 960 1418 961 1418 c 1
EndSplineSet
LCarets2: 1 0
Ligature2: "'liga' Standard Ligatures lookup 0-1" f j
EndChar

StartChar: v.alt
Encoding: 65540 -1 344
GlifName: v.alt
Width: 911
VWidth: 2309
Flags: HW
HStem: 710 229<650 818>
VStem: 61 189<593 778> 246 182<156 348> 828 73<509 746>
LayerCount: 2
Fore
SplineSet
330 950 m 1xd0
 363 890 l 1
 281 844 250 792 250 712 c 0xd0
 250 566 428 518 428 270 c 0
 428 236 420 200 416 154 c 1
 674 304 828 444 828 688 c 0
 828 708 826 728 818 748 c 1
 807 730 773 710 736 710 c 0
 656 710 624 774 624 824 c 0
 624 885 672 938 746 938 c 0
 872 938 902 810 902 688 c 0
 902 350 633 166 242 -23 c 1
 216 8 l 1
 220 52 246 172 246 212 c 0xb0
 246 366 61 498 61 646 c 0
 61 806 230 902 330 950 c 1xd0
EndSplineSet
EndChar

StartChar: uni2116
Encoding: 8470 8470 345
GlifName: uni2116
Width: 2171
Flags: HW
HStem: 576 73<1607 2086> 760 73<1799 1979> 1447 73<1942 2123>
VStem: 1607 158<859 1225> 2156 158<1056 1420>
LayerCount: 2
Fore
SplineSet
1607 650 m 1
 2088 650 l 1
 2086 576 l 1
 1605 576 l 1
 1607 650 l 1
2048 1520 m 0
 2214 1520 2314 1426 2314 1260 c 0
 2314 958 2101 760 1874 760 c 0
 1708 760 1607 854 1607 1020 c 0
 1607 1322 1821 1520 2048 1520 c 0
1766 985 m 0
 1766 883 1804 833 1882 833 c 0
 2028 833 2156 1043 2156 1295 c 4
 2156 1397 2118 1447 2040 1447 c 0
 1894 1447 1766 1237 1766 985 c 0
EndSplineSet
Refer: 25 78 N 1 0 0 1 52 0 2
EndChar

StartChar: Euro
Encoding: 8364 8364 346
GlifName: E_uro
Width: 1419
Flags: HW
HStem: -20 79<675 969> 1107 223<1305 1405> 1445 75<1013 1326>
VStem: 311 229<291 828> 1282 228<1132 1303>
LayerCount: 2
Fore
SplineSet
1406 1330 m 1
 1396 1355 1331 1445 1178 1445 c 0
 800 1445 538 978 538 490 c 4
 538 261 593 59 811 59 c 0
 987 59 1151 194 1225 355 c 1
 1307 355 l 1
 1235 162 1028 -20 786 -20 c 0
 544 -20 311 150 311 550 c 0
 311 1070 717 1520 1158 1520 c 0
 1402 1520 1510 1336 1510 1232 c 0
 1510 1150 1457 1107 1396 1107 c 0
 1346 1107 1282 1141 1282 1221 c 0
 1282 1291 1337 1330 1396 1330 c 0
 1402 1330 1404 1330 1406 1330 c 1
EndSplineSet
Refer: 88 61 N 1 0 0 1 -61 -141 2
EndChar

